<?xml version="1.0" encoding="utf-8" standalone="no"?>
<!DOCTYPE svg PUBLIC "-//W3C//DTD SVG 1.1//EN"
  "http://www.w3.org/Graphics/SVG/1.1/DTD/svg11.dtd">
<!-- Created with matplotlib (https://matplotlib.org/) -->
<svg height="288pt" version="1.1" viewBox="0 0 432 288" width="432pt" xmlns="http://www.w3.org/2000/svg" xmlns:xlink="http://www.w3.org/1999/xlink">
 <defs>
  <style type="text/css">
*{stroke-linecap:butt;stroke-linejoin:round;}
  </style>
 </defs>
 <g id="figure_1">
  <g id="patch_1">
   <path d="M 0 288 
L 432 288 
L 432 0 
L 0 0 
z
" style="fill:#ffffff;"/>
  </g>
  <g id="axes_1">
   <g id="patch_2">
    <path d="M 54 252 
L 388.8 252 
L 388.8 34.56 
L 54 34.56 
z
" style="fill:#ffffff;"/>
   </g>
   <g id="matplotlib.axis_1">
    <g id="xtick_1">
     <g id="line2d_1">
      <defs>
       <path d="M 0 0 
L 0 3.5 
" id="md169d12dc5" style="stroke:#000000;stroke-width:0.8;"/>
      </defs>
      <g>
       <use style="stroke:#000000;stroke-width:0.8;" x="59.569054" xlink:href="#md169d12dc5" y="252"/>
      </g>
     </g>
     <g id="text_1">
      <!-- −4 -->
      <defs>
       <path d="M 10.59375 35.5 
L 73.1875 35.5 
L 73.1875 27.203125 
L 10.59375 27.203125 
z
" id="DejaVuSans-8722"/>
       <path d="M 37.796875 64.3125 
L 12.890625 25.390625 
L 37.796875 25.390625 
z
M 35.203125 72.90625 
L 47.609375 72.90625 
L 47.609375 25.390625 
L 58.015625 25.390625 
L 58.015625 17.1875 
L 47.609375 17.1875 
L 47.609375 0 
L 37.796875 0 
L 37.796875 17.1875 
L 4.890625 17.1875 
L 4.890625 26.703125 
z
" id="DejaVuSans-52"/>
      </defs>
      <g transform="translate(52.197961 266.598437)scale(0.1 -0.1)">
       <use xlink:href="#DejaVuSans-8722"/>
       <use x="83.789062" xlink:href="#DejaVuSans-52"/>
      </g>
     </g>
    </g>
    <g id="xtick_2">
     <g id="line2d_2">
      <g>
       <use style="stroke:#000000;stroke-width:0.8;" x="124.532854" xlink:href="#md169d12dc5" y="252"/>
      </g>
     </g>
     <g id="text_2">
      <!-- −2 -->
      <defs>
       <path d="M 19.1875 8.296875 
L 53.609375 8.296875 
L 53.609375 0 
L 7.328125 0 
L 7.328125 8.296875 
Q 12.9375 14.109375 22.625 23.890625 
Q 32.328125 33.6875 34.8125 36.53125 
Q 39.546875 41.84375 41.421875 45.53125 
Q 43.3125 49.21875 43.3125 52.78125 
Q 43.3125 58.59375 39.234375 62.25 
Q 35.15625 65.921875 28.609375 65.921875 
Q 23.96875 65.921875 18.8125 64.3125 
Q 13.671875 62.703125 7.8125 59.421875 
L 7.8125 69.390625 
Q 13.765625 71.78125 18.9375 73 
Q 24.125 74.21875 28.421875 74.21875 
Q 39.75 74.21875 46.484375 68.546875 
Q 53.21875 62.890625 53.21875 53.421875 
Q 53.21875 48.921875 51.53125 44.890625 
Q 49.859375 40.875 45.40625 35.40625 
Q 44.1875 33.984375 37.640625 27.21875 
Q 31.109375 20.453125 19.1875 8.296875 
z
" id="DejaVuSans-50"/>
      </defs>
      <g transform="translate(117.161761 266.598437)scale(0.1 -0.1)">
       <use xlink:href="#DejaVuSans-8722"/>
       <use x="83.789062" xlink:href="#DejaVuSans-50"/>
      </g>
     </g>
    </g>
    <g id="xtick_3">
     <g id="line2d_3">
      <g>
       <use style="stroke:#000000;stroke-width:0.8;" x="189.496655" xlink:href="#md169d12dc5" y="252"/>
      </g>
     </g>
     <g id="text_3">
      <!-- 0 -->
      <defs>
       <path d="M 31.78125 66.40625 
Q 24.171875 66.40625 20.328125 58.90625 
Q 16.5 51.421875 16.5 36.375 
Q 16.5 21.390625 20.328125 13.890625 
Q 24.171875 6.390625 31.78125 6.390625 
Q 39.453125 6.390625 43.28125 13.890625 
Q 47.125 21.390625 47.125 36.375 
Q 47.125 51.421875 43.28125 58.90625 
Q 39.453125 66.40625 31.78125 66.40625 
z
M 31.78125 74.21875 
Q 44.046875 74.21875 50.515625 64.515625 
Q 56.984375 54.828125 56.984375 36.375 
Q 56.984375 17.96875 50.515625 8.265625 
Q 44.046875 -1.421875 31.78125 -1.421875 
Q 19.53125 -1.421875 13.0625 8.265625 
Q 6.59375 17.96875 6.59375 36.375 
Q 6.59375 54.828125 13.0625 64.515625 
Q 19.53125 74.21875 31.78125 74.21875 
z
" id="DejaVuSans-48"/>
      </defs>
      <g transform="translate(186.315405 266.598437)scale(0.1 -0.1)">
       <use xlink:href="#DejaVuSans-48"/>
      </g>
     </g>
    </g>
    <g id="xtick_4">
     <g id="line2d_4">
      <g>
       <use style="stroke:#000000;stroke-width:0.8;" x="254.460455" xlink:href="#md169d12dc5" y="252"/>
      </g>
     </g>
     <g id="text_4">
      <!-- 2 -->
      <g transform="translate(251.279205 266.598437)scale(0.1 -0.1)">
       <use xlink:href="#DejaVuSans-50"/>
      </g>
     </g>
    </g>
    <g id="xtick_5">
     <g id="line2d_5">
      <g>
       <use style="stroke:#000000;stroke-width:0.8;" x="319.424255" xlink:href="#md169d12dc5" y="252"/>
      </g>
     </g>
     <g id="text_5">
      <!-- 4 -->
      <g transform="translate(316.243005 266.598437)scale(0.1 -0.1)">
       <use xlink:href="#DejaVuSans-52"/>
      </g>
     </g>
    </g>
    <g id="xtick_6">
     <g id="line2d_6">
      <g>
       <use style="stroke:#000000;stroke-width:0.8;" x="384.388055" xlink:href="#md169d12dc5" y="252"/>
      </g>
     </g>
     <g id="text_6">
      <!-- 6 -->
      <defs>
       <path d="M 33.015625 40.375 
Q 26.375 40.375 22.484375 35.828125 
Q 18.609375 31.296875 18.609375 23.390625 
Q 18.609375 15.53125 22.484375 10.953125 
Q 26.375 6.390625 33.015625 6.390625 
Q 39.65625 6.390625 43.53125 10.953125 
Q 47.40625 15.53125 47.40625 23.390625 
Q 47.40625 31.296875 43.53125 35.828125 
Q 39.65625 40.375 33.015625 40.375 
z
M 52.59375 71.296875 
L 52.59375 62.3125 
Q 48.875 64.0625 45.09375 64.984375 
Q 41.3125 65.921875 37.59375 65.921875 
Q 27.828125 65.921875 22.671875 59.328125 
Q 17.53125 52.734375 16.796875 39.40625 
Q 19.671875 43.65625 24.015625 45.921875 
Q 28.375 48.1875 33.59375 48.1875 
Q 44.578125 48.1875 50.953125 41.515625 
Q 57.328125 34.859375 57.328125 23.390625 
Q 57.328125 12.15625 50.6875 5.359375 
Q 44.046875 -1.421875 33.015625 -1.421875 
Q 20.359375 -1.421875 13.671875 8.265625 
Q 6.984375 17.96875 6.984375 36.375 
Q 6.984375 53.65625 15.1875 63.9375 
Q 23.390625 74.21875 37.203125 74.21875 
Q 40.921875 74.21875 44.703125 73.484375 
Q 48.484375 72.75 52.59375 71.296875 
z
" id="DejaVuSans-54"/>
      </defs>
      <g transform="translate(381.206805 266.598437)scale(0.1 -0.1)">
       <use xlink:href="#DejaVuSans-54"/>
      </g>
     </g>
    </g>
    <g id="text_7">
     <!-- Reduced Feature 0 -->
     <defs>
      <path d="M 44.390625 34.1875 
Q 47.5625 33.109375 50.5625 29.59375 
Q 53.5625 26.078125 56.59375 19.921875 
L 66.609375 0 
L 56 0 
L 46.6875 18.703125 
Q 43.0625 26.03125 39.671875 28.421875 
Q 36.28125 30.8125 30.421875 30.8125 
L 19.671875 30.8125 
L 19.671875 0 
L 9.8125 0 
L 9.8125 72.90625 
L 32.078125 72.90625 
Q 44.578125 72.90625 50.734375 67.671875 
Q 56.890625 62.453125 56.890625 51.90625 
Q 56.890625 45.015625 53.6875 40.46875 
Q 50.484375 35.9375 44.390625 34.1875 
z
M 19.671875 64.796875 
L 19.671875 38.921875 
L 32.078125 38.921875 
Q 39.203125 38.921875 42.84375 42.21875 
Q 46.484375 45.515625 46.484375 51.90625 
Q 46.484375 58.296875 42.84375 61.546875 
Q 39.203125 64.796875 32.078125 64.796875 
z
" id="DejaVuSans-82"/>
      <path d="M 56.203125 29.59375 
L 56.203125 25.203125 
L 14.890625 25.203125 
Q 15.484375 15.921875 20.484375 11.0625 
Q 25.484375 6.203125 34.421875 6.203125 
Q 39.59375 6.203125 44.453125 7.46875 
Q 49.3125 8.734375 54.109375 11.28125 
L 54.109375 2.78125 
Q 49.265625 0.734375 44.1875 -0.34375 
Q 39.109375 -1.421875 33.890625 -1.421875 
Q 20.796875 -1.421875 13.15625 6.1875 
Q 5.515625 13.8125 5.515625 26.8125 
Q 5.515625 40.234375 12.765625 48.109375 
Q 20.015625 56 32.328125 56 
Q 43.359375 56 49.78125 48.890625 
Q 56.203125 41.796875 56.203125 29.59375 
z
M 47.21875 32.234375 
Q 47.125 39.59375 43.09375 43.984375 
Q 39.0625 48.390625 32.421875 48.390625 
Q 24.90625 48.390625 20.390625 44.140625 
Q 15.875 39.890625 15.1875 32.171875 
z
" id="DejaVuSans-101"/>
      <path d="M 45.40625 46.390625 
L 45.40625 75.984375 
L 54.390625 75.984375 
L 54.390625 0 
L 45.40625 0 
L 45.40625 8.203125 
Q 42.578125 3.328125 38.25 0.953125 
Q 33.9375 -1.421875 27.875 -1.421875 
Q 17.96875 -1.421875 11.734375 6.484375 
Q 5.515625 14.40625 5.515625 27.296875 
Q 5.515625 40.1875 11.734375 48.09375 
Q 17.96875 56 27.875 56 
Q 33.9375 56 38.25 53.625 
Q 42.578125 51.265625 45.40625 46.390625 
z
M 14.796875 27.296875 
Q 14.796875 17.390625 18.875 11.75 
Q 22.953125 6.109375 30.078125 6.109375 
Q 37.203125 6.109375 41.296875 11.75 
Q 45.40625 17.390625 45.40625 27.296875 
Q 45.40625 37.203125 41.296875 42.84375 
Q 37.203125 48.484375 30.078125 48.484375 
Q 22.953125 48.484375 18.875 42.84375 
Q 14.796875 37.203125 14.796875 27.296875 
z
" id="DejaVuSans-100"/>
      <path d="M 8.5 21.578125 
L 8.5 54.6875 
L 17.484375 54.6875 
L 17.484375 21.921875 
Q 17.484375 14.15625 20.5 10.265625 
Q 23.53125 6.390625 29.59375 6.390625 
Q 36.859375 6.390625 41.078125 11.03125 
Q 45.3125 15.671875 45.3125 23.6875 
L 45.3125 54.6875 
L 54.296875 54.6875 
L 54.296875 0 
L 45.3125 0 
L 45.3125 8.40625 
Q 42.046875 3.421875 37.71875 1 
Q 33.40625 -1.421875 27.6875 -1.421875 
Q 18.265625 -1.421875 13.375 4.4375 
Q 8.5 10.296875 8.5 21.578125 
z
M 31.109375 56 
z
" id="DejaVuSans-117"/>
      <path d="M 48.78125 52.59375 
L 48.78125 44.1875 
Q 44.96875 46.296875 41.140625 47.34375 
Q 37.3125 48.390625 33.40625 48.390625 
Q 24.65625 48.390625 19.8125 42.84375 
Q 14.984375 37.3125 14.984375 27.296875 
Q 14.984375 17.28125 19.8125 11.734375 
Q 24.65625 6.203125 33.40625 6.203125 
Q 37.3125 6.203125 41.140625 7.25 
Q 44.96875 8.296875 48.78125 10.40625 
L 48.78125 2.09375 
Q 45.015625 0.34375 40.984375 -0.53125 
Q 36.96875 -1.421875 32.421875 -1.421875 
Q 20.0625 -1.421875 12.78125 6.34375 
Q 5.515625 14.109375 5.515625 27.296875 
Q 5.515625 40.671875 12.859375 48.328125 
Q 20.21875 56 33.015625 56 
Q 37.15625 56 41.109375 55.140625 
Q 45.0625 54.296875 48.78125 52.59375 
z
" id="DejaVuSans-99"/>
      <path id="DejaVuSans-32"/>
      <path d="M 9.8125 72.90625 
L 51.703125 72.90625 
L 51.703125 64.59375 
L 19.671875 64.59375 
L 19.671875 43.109375 
L 48.578125 43.109375 
L 48.578125 34.8125 
L 19.671875 34.8125 
L 19.671875 0 
L 9.8125 0 
z
" id="DejaVuSans-70"/>
      <path d="M 34.28125 27.484375 
Q 23.390625 27.484375 19.1875 25 
Q 14.984375 22.515625 14.984375 16.5 
Q 14.984375 11.71875 18.140625 8.90625 
Q 21.296875 6.109375 26.703125 6.109375 
Q 34.1875 6.109375 38.703125 11.40625 
Q 43.21875 16.703125 43.21875 25.484375 
L 43.21875 27.484375 
z
M 52.203125 31.203125 
L 52.203125 0 
L 43.21875 0 
L 43.21875 8.296875 
Q 40.140625 3.328125 35.546875 0.953125 
Q 30.953125 -1.421875 24.3125 -1.421875 
Q 15.921875 -1.421875 10.953125 3.296875 
Q 6 8.015625 6 15.921875 
Q 6 25.140625 12.171875 29.828125 
Q 18.359375 34.515625 30.609375 34.515625 
L 43.21875 34.515625 
L 43.21875 35.40625 
Q 43.21875 41.609375 39.140625 45 
Q 35.0625 48.390625 27.6875 48.390625 
Q 23 48.390625 18.546875 47.265625 
Q 14.109375 46.140625 10.015625 43.890625 
L 10.015625 52.203125 
Q 14.9375 54.109375 19.578125 55.046875 
Q 24.21875 56 28.609375 56 
Q 40.484375 56 46.34375 49.84375 
Q 52.203125 43.703125 52.203125 31.203125 
z
" id="DejaVuSans-97"/>
      <path d="M 18.3125 70.21875 
L 18.3125 54.6875 
L 36.8125 54.6875 
L 36.8125 47.703125 
L 18.3125 47.703125 
L 18.3125 18.015625 
Q 18.3125 11.328125 20.140625 9.421875 
Q 21.96875 7.515625 27.59375 7.515625 
L 36.8125 7.515625 
L 36.8125 0 
L 27.59375 0 
Q 17.1875 0 13.234375 3.875 
Q 9.28125 7.765625 9.28125 18.015625 
L 9.28125 47.703125 
L 2.6875 47.703125 
L 2.6875 54.6875 
L 9.28125 54.6875 
L 9.28125 70.21875 
z
" id="DejaVuSans-116"/>
      <path d="M 41.109375 46.296875 
Q 39.59375 47.171875 37.8125 47.578125 
Q 36.03125 48 33.890625 48 
Q 26.265625 48 22.1875 43.046875 
Q 18.109375 38.09375 18.109375 28.8125 
L 18.109375 0 
L 9.078125 0 
L 9.078125 54.6875 
L 18.109375 54.6875 
L 18.109375 46.1875 
Q 20.953125 51.171875 25.484375 53.578125 
Q 30.03125 56 36.53125 56 
Q 37.453125 56 38.578125 55.875 
Q 39.703125 55.765625 41.0625 55.515625 
z
" id="DejaVuSans-114"/>
     </defs>
     <g transform="translate(173.878125 280.276563)scale(0.1 -0.1)">
      <use xlink:href="#DejaVuSans-82"/>
      <use x="69.419922" xlink:href="#DejaVuSans-101"/>
      <use x="130.943359" xlink:href="#DejaVuSans-100"/>
      <use x="194.419922" xlink:href="#DejaVuSans-117"/>
      <use x="257.798828" xlink:href="#DejaVuSans-99"/>
      <use x="312.779297" xlink:href="#DejaVuSans-101"/>
      <use x="374.302734" xlink:href="#DejaVuSans-100"/>
      <use x="437.779297" xlink:href="#DejaVuSans-32"/>
      <use x="469.566406" xlink:href="#DejaVuSans-70"/>
      <use x="527.007812" xlink:href="#DejaVuSans-101"/>
      <use x="588.53125" xlink:href="#DejaVuSans-97"/>
      <use x="649.810547" xlink:href="#DejaVuSans-116"/>
      <use x="689.019531" xlink:href="#DejaVuSans-117"/>
      <use x="752.398438" xlink:href="#DejaVuSans-114"/>
      <use x="793.480469" xlink:href="#DejaVuSans-101"/>
      <use x="855.003906" xlink:href="#DejaVuSans-32"/>
      <use x="886.791016" xlink:href="#DejaVuSans-48"/>
     </g>
    </g>
   </g>
   <g id="matplotlib.axis_2">
    <g id="ytick_1">
     <g id="line2d_7">
      <defs>
       <path d="M 0 0 
L -3.5 0 
" id="mae63bfbb94" style="stroke:#000000;stroke-width:0.8;"/>
      </defs>
      <g>
       <use style="stroke:#000000;stroke-width:0.8;" x="54" xlink:href="#mae63bfbb94" y="212.575848"/>
      </g>
     </g>
     <g id="text_8">
      <!-- 1 -->
      <defs>
       <path d="M 12.40625 8.296875 
L 28.515625 8.296875 
L 28.515625 63.921875 
L 10.984375 60.40625 
L 10.984375 69.390625 
L 28.421875 72.90625 
L 38.28125 72.90625 
L 38.28125 8.296875 
L 54.390625 8.296875 
L 54.390625 0 
L 12.40625 0 
z
" id="DejaVuSans-49"/>
      </defs>
      <g transform="translate(40.6375 216.375066)scale(0.1 -0.1)">
       <use xlink:href="#DejaVuSans-49"/>
      </g>
     </g>
    </g>
    <g id="ytick_2">
     <g id="line2d_8">
      <g>
       <use style="stroke:#000000;stroke-width:0.8;" x="54" xlink:href="#mae63bfbb94" y="165.466435"/>
      </g>
     </g>
     <g id="text_9">
      <!-- 2 -->
      <g transform="translate(40.6375 169.265653)scale(0.1 -0.1)">
       <use xlink:href="#DejaVuSans-50"/>
      </g>
     </g>
    </g>
    <g id="ytick_3">
     <g id="line2d_9">
      <g>
       <use style="stroke:#000000;stroke-width:0.8;" x="54" xlink:href="#mae63bfbb94" y="118.357022"/>
      </g>
     </g>
     <g id="text_10">
      <!-- 3 -->
      <defs>
       <path d="M 40.578125 39.3125 
Q 47.65625 37.796875 51.625 33 
Q 55.609375 28.21875 55.609375 21.1875 
Q 55.609375 10.40625 48.1875 4.484375 
Q 40.765625 -1.421875 27.09375 -1.421875 
Q 22.515625 -1.421875 17.65625 -0.515625 
Q 12.796875 0.390625 7.625 2.203125 
L 7.625 11.71875 
Q 11.71875 9.328125 16.59375 8.109375 
Q 21.484375 6.890625 26.8125 6.890625 
Q 36.078125 6.890625 40.9375 10.546875 
Q 45.796875 14.203125 45.796875 21.1875 
Q 45.796875 27.640625 41.28125 31.265625 
Q 36.765625 34.90625 28.71875 34.90625 
L 20.21875 34.90625 
L 20.21875 43.015625 
L 29.109375 43.015625 
Q 36.375 43.015625 40.234375 45.921875 
Q 44.09375 48.828125 44.09375 54.296875 
Q 44.09375 59.90625 40.109375 62.90625 
Q 36.140625 65.921875 28.71875 65.921875 
Q 24.65625 65.921875 20.015625 65.03125 
Q 15.375 64.15625 9.8125 62.3125 
L 9.8125 71.09375 
Q 15.4375 72.65625 20.34375 73.4375 
Q 25.25 74.21875 29.59375 74.21875 
Q 40.828125 74.21875 47.359375 69.109375 
Q 53.90625 64.015625 53.90625 55.328125 
Q 53.90625 49.265625 50.4375 45.09375 
Q 46.96875 40.921875 40.578125 39.3125 
z
" id="DejaVuSans-51"/>
      </defs>
      <g transform="translate(40.6375 122.156241)scale(0.1 -0.1)">
       <use xlink:href="#DejaVuSans-51"/>
      </g>
     </g>
    </g>
    <g id="ytick_4">
     <g id="line2d_10">
      <g>
       <use style="stroke:#000000;stroke-width:0.8;" x="54" xlink:href="#mae63bfbb94" y="71.247609"/>
      </g>
     </g>
     <g id="text_11">
      <!-- 4 -->
      <g transform="translate(40.6375 75.046828)scale(0.1 -0.1)">
       <use xlink:href="#DejaVuSans-52"/>
      </g>
     </g>
    </g>
    <g id="text_12">
     <!-- Reduced Feature 1 -->
     <g transform="translate(34.557812 190.801875)rotate(-90)scale(0.1 -0.1)">
      <use xlink:href="#DejaVuSans-82"/>
      <use x="69.419922" xlink:href="#DejaVuSans-101"/>
      <use x="130.943359" xlink:href="#DejaVuSans-100"/>
      <use x="194.419922" xlink:href="#DejaVuSans-117"/>
      <use x="257.798828" xlink:href="#DejaVuSans-99"/>
      <use x="312.779297" xlink:href="#DejaVuSans-101"/>
      <use x="374.302734" xlink:href="#DejaVuSans-100"/>
      <use x="437.779297" xlink:href="#DejaVuSans-32"/>
      <use x="469.566406" xlink:href="#DejaVuSans-70"/>
      <use x="527.007812" xlink:href="#DejaVuSans-101"/>
      <use x="588.53125" xlink:href="#DejaVuSans-97"/>
      <use x="649.810547" xlink:href="#DejaVuSans-116"/>
      <use x="689.019531" xlink:href="#DejaVuSans-117"/>
      <use x="752.398438" xlink:href="#DejaVuSans-114"/>
      <use x="793.480469" xlink:href="#DejaVuSans-101"/>
      <use x="855.003906" xlink:href="#DejaVuSans-32"/>
      <use x="886.791016" xlink:href="#DejaVuSans-49"/>
     </g>
    </g>
   </g>
   <g id="LineCollection_1"/>
   <g id="LineCollection_2">
    <path clip-path="url(#p12ebc7cf9b)" d="M 172.648957 224.27662 
L 175.473932 224.543823 
L 186.773833 225.072636 
L 192.423783 225.170314 
L 195.248759 225.086378 
L 198.073734 224.888031 
L 200.898709 224.563725 
L 206.548659 223.607486 
L 215.023585 221.836913 
L 220.673535 221.021127 
L 226.323485 220.406079 
L 229.148461 219.897203 
L 231.973436 219.005273 
L 235.219856 217.451031 
L 243.273336 212.331379 
L 250.071173 209.225086 
L 252.536752 207.579897 
L 254.573237 205.412483 
L 255.392956 204.289519 
L 256.267151 202.64433 
L 256.878047 200.999141 
L 257.829265 197.708763 
L 258.455354 196.063574 
L 260.802439 191.128007 
L 261.196911 189.482818 
L 261.181746 187.837629 
L 260.783199 186.19244 
L 258.172564 179.611684 
L 257.259566 177.966495 
L 256.13934 176.321306 
L 251.649521 171.385739 
L 248.923287 167.436547 
L 248.002341 166.450172 
L 245.84218 164.804983 
L 240.243704 161.514605 
L 231.611167 154.933849 
L 226.717489 151.643471 
L 226.323485 151.339207 
L 223.49851 149.391693 
L 220.673535 148.054399 
L 217.84856 147.308785 
L 215.023585 146.971941 
L 209.373634 146.69203 
L 206.548659 146.301787 
L 202.554225 145.062715 
L 200.898709 144.361336 
L 198.073734 143.707916 
L 195.248759 143.712352 
L 183.948858 144.941406 
L 181.123883 145.000883 
L 178.298908 144.917269 
L 169.823982 144.244657 
L 166.999007 144.258738 
L 164.174032 144.564831 
L 161.349057 145.227641 
L 157.634104 146.707904 
L 154.808827 148.353093 
L 152.668769 149.998282 
L 149.180595 153.28866 
L 147.224181 155.111008 
L 143.214717 158.224227 
L 136.67697 163.159794 
L 126.099858 171.385739 
L 121.799404 175.236323 
L 120.745437 176.321306 
L 119.442456 177.966495 
L 118.618217 179.611684 
L 118.329649 181.256873 
L 118.535558 182.902062 
L 119.157352 184.547251 
L 119.885982 186.19244 
L 120.257921 187.837629 
L 120.199963 189.482818 
L 119.60953 192.773196 
L 119.493965 194.418385 
L 119.617882 196.063574 
L 119.949067 197.708763 
L 120.928735 200.999141 
L 122.545166 205.934708 
L 123.384565 207.579897 
L 124.853371 209.225086 
L 127.449354 210.907518 
L 134.065335 214.160653 
L 138.749255 216.055395 
L 152.04113 220.741409 
L 152.874131 221.000522 
L 155.699106 221.673969 
L 166.999007 223.442839 
L 172.648957 224.27662 
L 172.648957 224.27662 
" style="fill:none;stroke:#222a30;stroke-width:1.5;"/>
   </g>
   <g id="LineCollection_3">
    <path clip-path="url(#p12ebc7cf9b)" d="M 178.298908 219.222031 
L 189.598808 220.568685 
L 192.423783 220.640043 
L 195.248759 220.534228 
L 198.073734 220.258746 
L 203.723684 219.318758 
L 209.373634 218.243786 
L 215.023585 217.276259 
L 220.673535 216.398526 
L 223.504833 215.805842 
L 226.323485 214.918175 
L 229.148461 213.567138 
L 231.973436 211.708862 
L 237.798529 207.579897 
L 240.448361 205.81517 
L 242.564944 204.289519 
L 244.179998 202.64433 
L 245.172451 200.999141 
L 245.721034 199.353952 
L 246.483593 196.063574 
L 247.612723 192.773196 
L 248.76938 189.482818 
L 249.144553 187.837629 
L 249.32042 186.19244 
L 249.325916 184.547251 
L 249.166089 182.902062 
L 248.749211 181.256873 
L 247.905626 179.611684 
L 246.098312 177.611097 
L 238.855007 171.385739 
L 236.461612 169.74055 
L 231.041673 166.450172 
L 228.928733 164.804983 
L 225.193182 161.514605 
L 222.920492 159.869416 
L 220.273974 158.224227 
L 217.378588 156.579038 
L 215.023585 155.448042 
L 212.19861 154.502078 
L 209.373634 153.960476 
L 206.548659 153.674117 
L 189.598808 152.863136 
L 186.773833 152.889026 
L 182.388206 153.28866 
L 178.298908 153.89166 
L 169.823982 155.445637 
L 165.98955 156.579038 
L 164.174032 157.230084 
L 161.349057 158.564237 
L 158.524081 160.18997 
L 154.247628 163.159794 
L 147.224181 168.271088 
L 140.203448 173.030928 
L 138.240994 174.676117 
L 136.767885 176.321306 
L 135.837729 177.966495 
L 135.133784 179.611684 
L 134.206261 182.902062 
L 133.099305 187.155698 
L 131.146276 192.773196 
L 130.916488 194.418385 
L 131.011219 196.063574 
L 131.442853 197.708763 
L 132.158551 199.353952 
L 133.099305 201.049407 
L 135.217726 204.289519 
L 137.87689 207.579897 
L 139.665993 209.225086 
L 142.024243 210.870275 
L 145.208845 212.515464 
L 150.049156 214.484201 
L 155.699106 216.475072 
L 159.685493 217.451031 
L 161.349057 217.775125 
L 164.174032 218.166413 
L 169.823982 218.64189 
L 178.298908 219.222031 
L 178.298908 219.222031 
" style="fill:none;stroke:#21333f;stroke-width:1.5;"/>
   </g>
   <g id="LineCollection_4">
    <path clip-path="url(#p12ebc7cf9b)" d="M 178.298908 215.986719 
L 189.598808 217.182024 
L 192.423783 217.196103 
L 195.248759 217.008082 
L 198.073734 216.640992 
L 206.548659 215.048905 
L 217.84856 212.833819 
L 220.673535 212.041844 
L 223.622101 210.870275 
L 226.579041 209.225086 
L 229.148461 207.525876 
L 231.973436 205.427128 
L 233.371282 204.289519 
L 235.069741 202.64433 
L 236.409993 200.999141 
L 237.623386 198.95798 
L 238.935234 196.063574 
L 240.191926 192.773196 
L 240.701072 191.128007 
L 241.067435 189.482818 
L 241.25499 187.837629 
L 241.272946 186.19244 
L 241.119861 184.547251 
L 240.724876 182.902062 
L 239.986387 181.256873 
L 238.819041 179.611684 
L 235.630497 176.321306 
L 233.756362 174.676117 
L 231.502438 173.030928 
L 223.446945 168.095361 
L 220.673535 166.247948 
L 217.84856 164.611644 
L 211.640521 161.514605 
L 209.373634 160.464795 
L 206.548659 159.465459 
L 203.723684 158.810132 
L 200.898709 158.445939 
L 198.073734 158.303063 
L 195.248759 158.337139 
L 192.423783 158.524645 
L 189.598808 158.85642 
L 186.773833 159.329784 
L 181.123883 160.560402 
L 172.648957 162.766668 
L 169.823982 163.674842 
L 166.937116 164.804983 
L 163.418589 166.450172 
L 158.524081 168.947416 
L 153.870469 171.385739 
L 150.732689 173.030928 
L 150.049156 173.396966 
L 147.224181 175.127019 
L 145.600341 176.321306 
L 143.832983 177.966495 
L 142.496611 179.611684 
L 141.43227 181.256873 
L 140.528724 182.902062 
L 139.796008 184.547251 
L 139.232113 186.19244 
L 138.749255 188.443802 
L 138.582726 189.482818 
L 138.500549 191.128007 
L 138.749255 193.113246 
L 139.146353 194.418385 
L 140.09355 196.063574 
L 141.57423 197.869983 
L 142.648154 199.353952 
L 143.545395 200.999141 
L 145.334714 205.934708 
L 146.690057 207.579897 
L 148.958694 209.225086 
L 152.272408 210.870275 
L 156.419056 212.515464 
L 158.524081 213.23986 
L 161.903428 214.160653 
L 164.174032 214.629199 
L 166.999007 215.045767 
L 172.648957 215.552664 
L 178.298908 215.986719 
L 178.298908 215.986719 
" style="fill:none;stroke:#213b4e;stroke-width:1.5;"/>
   </g>
   <g id="LineCollection_5">
    <path clip-path="url(#p12ebc7cf9b)" d="M 186.773833 214.201888 
L 189.598808 214.336616 
L 193.376728 214.160653 
L 195.248759 213.966523 
L 198.073734 213.496065 
L 203.723684 212.239198 
L 209.373634 210.830472 
L 215.023585 209.199908 
L 219.153627 207.579897 
L 222.356083 205.934708 
L 224.967646 204.289519 
L 227.040902 202.64433 
L 228.598572 200.999141 
L 229.782563 199.353952 
L 232.724893 194.418385 
L 233.616861 192.773196 
L 234.326177 191.128007 
L 234.798411 189.175186 
L 234.917834 187.837629 
L 234.788524 186.19244 
L 234.393021 184.547251 
L 233.716739 182.902062 
L 232.716838 181.256873 
L 231.351505 179.611684 
L 229.148461 177.617309 
L 226.323485 175.756174 
L 221.70699 173.030928 
L 219.375734 171.385739 
L 217.072073 169.74055 
L 214.364091 168.095361 
L 210.860548 166.450172 
L 209.373634 165.833412 
L 206.297781 164.804983 
L 203.723684 164.063394 
L 200.898709 163.506694 
L 198.073734 163.229504 
L 195.248759 163.247983 
L 192.423783 163.517783 
L 186.773833 164.41642 
L 181.123883 165.508317 
L 177.654449 166.450172 
L 175.473932 167.140341 
L 166.999007 170.300955 
L 160.676476 173.030928 
L 153.965674 176.321306 
L 151.251706 177.966495 
L 149.150852 179.611684 
L 147.224181 181.555663 
L 146.179382 182.902062 
L 145.107178 184.547251 
L 144.323474 186.19244 
L 143.943218 187.837629 
L 143.934069 189.482818 
L 144.399205 191.283499 
L 145.143744 192.773196 
L 147.224181 195.540325 
L 148.79986 197.708763 
L 150.049156 199.846534 
L 152.034774 204.289519 
L 153.308108 205.934708 
L 155.699106 207.742923 
L 158.591292 209.225086 
L 161.349057 210.284543 
L 164.174032 211.14208 
L 166.999007 211.792467 
L 171.41984 212.515464 
L 175.473932 212.995567 
L 186.773833 214.201888 
L 186.773833 214.201888 
" style="fill:none;stroke:#21445c;stroke-width:1.5;"/>
   </g>
   <g id="LineCollection_6">
    <path clip-path="url(#p12ebc7cf9b)" d="M 181.123883 211.068545 
L 183.948858 211.38754 
L 186.773833 211.619779 
L 189.598808 211.694972 
L 192.423783 211.556005 
L 195.248759 211.193375 
L 196.911562 210.870275 
L 198.073734 210.642902 
L 200.898709 209.956646 
L 203.468077 209.225086 
L 203.723684 209.147159 
L 206.548659 208.216609 
L 208.326728 207.579897 
L 209.373634 207.149261 
L 212.189483 205.934708 
L 212.19861 205.93022 
L 215.023585 204.538227 
L 215.507761 204.289519 
L 217.84856 202.995641 
L 218.437827 202.64433 
L 220.673535 201.154085 
L 220.878364 200.999141 
L 222.70977 199.353952 
L 223.49851 198.407716 
L 224.050257 197.708763 
L 225.102926 196.063574 
L 225.985543 194.418385 
L 226.323485 193.718895 
L 226.83788 192.773196 
L 227.617683 191.128007 
L 228.20374 189.482818 
L 228.487983 187.837629 
L 228.400616 186.19244 
L 227.913064 184.547251 
L 226.995602 182.902062 
L 226.323485 182.097229 
L 225.502171 181.256873 
L 223.49851 179.75091 
L 223.285109 179.611684 
L 220.673535 178.117622 
L 220.41377 177.966495 
L 217.84856 176.40637 
L 217.726311 176.321306 
L 215.576299 174.676117 
L 215.023585 174.229228 
L 213.578804 173.030928 
L 212.19861 171.988402 
L 211.299236 171.385739 
L 209.373634 170.297312 
L 208.111367 169.74055 
L 206.548659 169.137669 
L 203.723684 168.369092 
L 202.055724 168.095361 
L 200.898709 167.907689 
L 198.073734 167.703245 
L 195.248759 167.703209 
L 192.423783 167.839476 
L 189.598808 168.058054 
L 189.261077 168.095361 
L 186.773833 168.350199 
L 183.948858 168.781349 
L 181.123883 169.419901 
L 180.046144 169.74055 
L 178.298908 170.258851 
L 175.473932 171.20584 
L 174.952507 171.385739 
L 172.648957 172.151589 
L 170.112084 173.030928 
L 169.823982 173.13413 
L 166.999007 174.276784 
L 166.127381 174.676117 
L 164.174032 175.674966 
L 162.958298 176.321306 
L 161.349057 177.258709 
L 160.086145 177.966495 
L 158.524081 178.927736 
L 157.393043 179.611684 
L 155.699106 180.808077 
L 155.090592 181.256873 
L 153.223605 182.902062 
L 152.874131 183.277905 
L 151.753991 184.547251 
L 150.622473 186.19244 
L 150.049156 187.641148 
L 149.983313 187.837629 
L 149.948808 189.482818 
L 150.049156 189.823341 
L 150.444335 191.128007 
L 151.288752 192.773196 
L 152.277662 194.418385 
L 152.874131 195.36722 
L 153.259416 196.063574 
L 154.161577 197.708763 
L 155.051678 199.353952 
L 155.699106 200.488765 
L 155.997295 200.999141 
L 157.123805 202.64433 
L 158.524081 204.149036 
L 158.678941 204.289519 
L 160.995757 205.934708 
L 161.349057 206.133883 
L 164.174032 207.442951 
L 164.536296 207.579897 
L 166.999007 208.407084 
L 169.823982 209.17388 
L 170.04135 209.225086 
L 172.648957 209.779909 
L 175.473932 210.27682 
L 178.298908 210.699306 
L 179.572947 210.870275 
L 181.123883 211.068545 
" style="fill:none;stroke:#204d6b;stroke-width:1.5;"/>
   </g>
   <g id="LineCollection_7">
    <path clip-path="url(#p12ebc7cf9b)" d="M 178.298908 207.96767 
L 181.123883 208.424233 
L 183.948858 208.776482 
L 186.773833 208.998752 
L 189.598808 209.044262 
L 192.423783 208.874181 
L 195.248759 208.482893 
L 198.073734 207.885659 
L 199.182649 207.579897 
L 200.898709 207.063044 
L 203.723684 206.014417 
L 203.917726 205.934708 
L 206.548659 204.676468 
L 207.323684 204.289519 
L 209.373634 203.149966 
L 210.305251 202.64433 
L 212.19861 201.594665 
L 213.275587 200.999141 
L 215.023585 199.999667 
L 216.039043 199.353952 
L 217.84856 197.969463 
L 218.139253 197.708763 
L 219.496142 196.063574 
L 220.361366 194.418385 
L 220.673535 193.453609 
L 220.905631 192.773196 
L 221.267278 191.128007 
L 221.485541 189.482818 
L 221.509111 187.837629 
L 221.202635 186.19244 
L 220.673535 185.101557 
L 220.39349 184.547251 
L 218.87825 182.902062 
L 217.84856 182.13896 
L 216.628387 181.256873 
L 215.023585 180.235625 
L 214.103218 179.611684 
L 212.19861 178.245475 
L 211.830195 177.966495 
L 209.785959 176.321306 
L 209.373634 175.988582 
L 207.4895 174.676117 
L 206.548659 174.09623 
L 204.112024 173.030928 
L 203.723684 172.883608 
L 200.898709 172.207208 
L 198.073734 171.859439 
L 195.248759 171.702613 
L 192.423783 171.652055 
L 189.598808 171.701945 
L 186.773833 171.911723 
L 183.948858 172.356129 
L 181.219854 173.030928 
L 181.123883 173.055582 
L 178.298908 173.945731 
L 176.096433 174.676117 
L 175.473932 174.890251 
L 172.648957 175.905946 
L 171.615097 176.321306 
L 169.823982 177.11979 
L 168.193938 177.966495 
L 166.999007 178.648126 
L 165.444038 179.611684 
L 164.174032 180.480221 
L 163.065616 181.256873 
L 161.349057 182.719009 
L 161.133536 182.902062 
L 159.649168 184.547251 
L 158.574921 186.19244 
L 158.524081 186.294873 
L 157.704832 187.837629 
L 157.150848 189.482818 
L 156.970571 191.128007 
L 157.131895 192.773196 
L 157.546676 194.418385 
L 158.140059 196.063574 
L 158.524081 196.900487 
L 158.894378 197.708763 
L 159.871284 199.353952 
L 161.160671 200.999141 
L 161.349057 201.192781 
L 163.102596 202.64433 
L 164.174032 203.357292 
L 165.96589 204.289519 
L 166.999007 204.760038 
L 169.823982 205.822105 
L 170.16356 205.934708 
L 172.648957 206.672669 
L 175.473932 207.393459 
L 176.321113 207.579897 
L 178.298908 207.96767 
" style="fill:none;stroke:#20557a;stroke-width:1.5;"/>
   </g>
   <g id="LineCollection_8">
    <path clip-path="url(#p12ebc7cf9b)" d="M 186.773833 206.167473 
L 189.598808 206.209222 
L 192.423783 206.037042 
L 193.135263 205.934708 
L 195.248759 205.606256 
L 198.073734 204.881202 
L 199.71435 204.289519 
L 200.898709 203.793729 
L 203.131697 202.64433 
L 203.723684 202.296905 
L 205.858676 200.999141 
L 206.548659 200.561894 
L 208.606792 199.353952 
L 209.373634 198.894802 
L 211.391177 197.708763 
L 212.19861 197.147911 
L 213.547317 196.063574 
L 214.866934 194.418385 
L 215.023585 194.050974 
L 215.503115 192.773196 
L 215.75471 191.128007 
L 215.73241 189.482818 
L 215.404194 187.837629 
L 215.023585 187.006675 
L 214.640049 186.19244 
L 213.260522 184.547251 
L 212.19861 183.678052 
L 211.189226 182.902062 
L 209.373634 181.657277 
L 208.764757 181.256873 
L 206.548659 179.731625 
L 206.35688 179.611684 
L 203.738343 177.966495 
L 203.723684 177.957868 
L 200.898709 176.731526 
L 199.375592 176.321306 
L 198.073734 176.006317 
L 195.248759 175.5984 
L 192.423783 175.391571 
L 189.598808 175.369643 
L 186.773833 175.587222 
L 183.948858 176.096217 
L 183.11542 176.321306 
L 181.123883 176.876808 
L 178.298908 177.82085 
L 177.899098 177.966495 
L 175.473932 178.9013 
L 173.851801 179.611684 
L 172.648957 180.19065 
L 170.736729 181.256873 
L 169.823982 181.836712 
L 168.33949 182.902062 
L 166.999007 184.073987 
L 166.508084 184.547251 
L 165.130911 186.19244 
L 164.174032 187.631424 
L 164.042447 187.837629 
L 163.151848 189.482818 
L 162.549379 191.128007 
L 162.303583 192.773196 
L 162.443626 194.418385 
L 162.969883 196.063574 
L 163.889012 197.708763 
L 164.174032 198.071371 
L 165.488008 199.353952 
L 166.999007 200.468726 
L 167.953385 200.999141 
L 169.823982 201.900588 
L 171.612677 202.64433 
L 172.648957 203.034088 
L 175.473932 204.025008 
L 176.300062 204.289519 
L 178.298908 204.842767 
L 181.123883 205.479909 
L 183.948858 205.932048 
L 183.978129 205.934708 
L 186.773833 206.167473 
" style="fill:none;stroke:#205e88;stroke-width:1.5;"/>
   </g>
   <g id="LineCollection_9">
    <path clip-path="url(#p12ebc7cf9b)" d="M 186.773833 202.936353 
L 189.598808 203.006093 
L 192.423783 202.800929 
L 193.2812 202.64433 
L 195.248759 202.233497 
L 198.073734 201.212408 
L 198.501033 200.999141 
L 200.898709 199.609751 
L 201.293483 199.353952 
L 203.675065 197.708763 
L 203.723684 197.674008 
L 206.093394 196.063574 
L 206.548659 195.731798 
L 208.243986 194.418385 
L 209.373634 193.184941 
L 209.68207 192.773196 
L 210.358037 191.128007 
L 210.465407 189.482818 
L 209.991801 187.837629 
L 209.373634 186.945211 
L 208.78336 186.19244 
L 206.754472 184.547251 
L 206.548659 184.408597 
L 203.985 182.902062 
L 203.723684 182.747272 
L 200.898709 181.344939 
L 200.665265 181.256873 
L 198.073734 180.266514 
L 195.380746 179.611684 
L 195.248759 179.582116 
L 192.423783 179.267242 
L 189.598808 179.251361 
L 186.773833 179.535232 
L 186.397684 179.611684 
L 183.948858 180.135242 
L 181.123883 180.970157 
L 180.337131 181.256873 
L 178.298908 182.037865 
L 176.437888 182.902062 
L 175.473932 183.389038 
L 173.58476 184.547251 
L 172.648957 185.198164 
L 171.4432 186.19244 
L 169.823982 187.791809 
L 169.783418 187.837629 
L 168.594109 189.482818 
L 167.805028 191.128007 
L 167.521389 192.773196 
L 167.888621 194.418385 
L 169.037912 196.063574 
L 169.823982 196.753939 
L 171.267955 197.708763 
L 172.648957 198.441905 
L 174.550588 199.353952 
L 175.473932 199.758166 
L 178.298908 200.961285 
L 178.397818 200.999141 
L 181.123883 201.916428 
L 183.948858 202.593021 
L 184.330303 202.64433 
L 186.773833 202.936353 
" style="fill:none;stroke:#206697;stroke-width:1.5;"/>
   </g>
   <g id="LineCollection_10">
    <path clip-path="url(#p12ebc7cf9b)" d="M 183.948858 198.289655 
L 186.773833 198.872478 
L 189.598808 198.984596 
L 192.423783 198.57486 
L 194.949224 197.708763 
L 195.248759 197.578006 
L 197.684562 196.063574 
L 198.073734 195.808982 
L 199.961816 194.418385 
L 200.898709 193.760168 
L 202.178422 192.773196 
L 203.723684 191.288501 
L 203.858361 191.128007 
L 204.369811 189.482818 
L 203.782129 187.837629 
L 203.723684 187.779958 
L 201.583627 186.19244 
L 200.898709 185.834857 
L 198.073734 184.81611 
L 196.796127 184.547251 
L 195.248759 184.233251 
L 192.423783 184.010067 
L 189.598808 184.070484 
L 186.773833 184.363122 
L 185.77747 184.547251 
L 183.948858 184.916621 
L 181.123883 185.751098 
L 180.071047 186.19244 
L 178.298908 187.044663 
L 177.073841 187.837629 
L 175.473932 189.200689 
L 175.210564 189.482818 
L 174.433647 191.128007 
L 174.624144 192.773196 
L 175.473932 193.841809 
L 176.069361 194.418385 
L 178.298908 195.83201 
L 178.702886 196.063574 
L 181.123883 197.239733 
L 182.258078 197.708763 
L 183.948858 198.289655 
" style="fill:none;stroke:#1f6fa6;stroke-width:1.5;"/>
   </g>
   <g id="LineCollection_11"/>
   <g id="LineCollection_12"/>
   <g id="LineCollection_13">
    <path clip-path="url(#p12ebc7cf9b)" d="M 222.461638 213.207758 
L 225.379855 213.75879 
L 228.298072 214.167104 
L 231.216289 214.37883 
L 234.134506 214.352134 
L 237.052722 214.103607 
L 248.72559 212.566504 
L 257.480241 211.638143 
L 263.316674 210.70031 
L 269.153108 209.556593 
L 280.825976 206.874523 
L 286.662409 205.017886 
L 289.580626 203.838764 
L 292.9887 202.257283 
L 296.8976 200.134533 
L 299.896785 198.011783 
L 302.110629 195.889032 
L 304.171711 193.214484 
L 305.287341 191.643531 
L 306.473946 189.520781 
L 308.016201 185.27528 
L 308.513908 183.15253 
L 309.187302 181.029779 
L 310.244161 178.907029 
L 311.731939 176.784278 
L 313.034061 174.661528 
L 314.08073 172.538777 
L 314.673681 170.416027 
L 314.927968 168.293277 
L 315.143646 164.047776 
L 315.533533 159.802275 
L 315.501157 157.679525 
L 315.036931 155.556774 
L 314.055739 153.434024 
L 312.64525 151.311273 
L 309.320336 147.065772 
L 307.089927 144.709516 
L 304.171711 142.3826 
L 301.253494 140.230571 
L 298.335277 137.420311 
L 296.064217 134.32927 
L 294.555015 132.206519 
L 292.498843 129.824545 
L 289.580626 127.175686 
L 279.723141 119.470017 
L 277.907759 118.156613 
L 274.989542 116.369631 
L 272.071325 115.013531 
L 269.153108 114.051783 
L 266.234891 113.497481 
L 263.316674 113.287253 
L 254.562024 113.298974 
L 251.643807 112.918642 
L 245.807373 111.557038 
L 237.052722 109.227026 
L 234.134506 108.716953 
L 231.216289 108.610284 
L 228.298072 108.995247 
L 225.379855 109.843625 
L 219.543421 112.205707 
L 213.346235 115.224516 
L 210.197273 117.347266 
L 204.952337 122.033995 
L 202.03412 124.061845 
L 193.279469 128.952757 
L 187.443035 132.933166 
L 184.524819 135.228731 
L 183.226015 136.45202 
L 181.408831 138.574771 
L 179.918371 140.697521 
L 175.770168 147.981757 
L 173.53168 151.311273 
L 172.351683 153.434024 
L 171.5107 155.556774 
L 170.518729 159.802275 
L 169.771526 164.047776 
L 169.358674 168.293277 
L 168.845899 172.538777 
L 168.507479 174.661528 
L 168.289198 176.784278 
L 168.308048 178.907029 
L 168.573538 181.029779 
L 169.330308 185.27528 
L 169.933734 190.100877 
L 170.213188 191.643531 
L 170.852264 193.766282 
L 171.729187 195.889032 
L 172.873191 198.011783 
L 174.364896 200.134533 
L 175.770168 201.563723 
L 176.611788 202.257283 
L 178.688385 203.57084 
L 181.606602 204.810627 
L 184.524819 205.66716 
L 190.361252 206.89573 
L 196.197686 207.800261 
L 202.03412 208.635676 
L 207.870554 209.840019 
L 213.706987 211.247979 
L 219.543421 212.600948 
L 222.461638 213.207758 
L 222.461638 213.207758 
" style="fill:none;stroke:#362a20;stroke-width:1.5;"/>
   </g>
   <g id="LineCollection_14">
    <path clip-path="url(#p12ebc7cf9b)" d="M 222.461638 206.988152 
L 228.298072 207.766982 
L 231.216289 208.054376 
L 234.134506 208.224331 
L 237.052722 208.249606 
L 242.889156 207.918141 
L 248.72559 207.168028 
L 254.562024 205.965769 
L 260.417768 204.380034 
L 269.153108 202.015099 
L 277.907759 200.064562 
L 280.825976 199.277932 
L 284.174298 198.011783 
L 286.662409 196.795546 
L 289.580626 194.944117 
L 291.092182 193.766282 
L 293.249631 191.643531 
L 294.804023 189.520781 
L 295.914519 187.39803 
L 297.491096 183.15253 
L 298.335277 180.888177 
L 300.430572 176.784278 
L 302.611267 172.538777 
L 303.232857 170.416027 
L 303.418222 168.293277 
L 303.215136 166.170526 
L 302.700361 164.047776 
L 301.947941 161.925025 
L 301.007238 159.802275 
L 299.861446 157.679525 
L 295.050959 151.311273 
L 292.40946 147.065772 
L 291.314157 144.943022 
L 289.580626 142.039413 
L 288.678858 140.697521 
L 286.662409 138.283043 
L 283.744192 135.895474 
L 272.071325 129.046569 
L 268.979953 127.961019 
L 266.234891 127.506524 
L 260.398457 127.190115 
L 257.480241 126.800888 
L 253.71922 125.838268 
L 246.962458 123.715518 
L 245.807373 123.374397 
L 242.889156 122.728764 
L 239.970939 122.323435 
L 237.052722 122.147351 
L 234.134506 122.18897 
L 228.298072 122.732284 
L 225.379855 123.121936 
L 222.120122 123.715518 
L 219.543421 124.349519 
L 216.22019 125.838268 
L 207.870554 130.683156 
L 202.03412 133.708907 
L 200.980582 134.32927 
L 197.975371 136.45202 
L 195.631633 138.574771 
L 193.279469 141.419228 
L 192.301278 142.820272 
L 188.567158 149.188523 
L 186.978488 151.311273 
L 183.445717 155.556774 
L 182.058994 157.679525 
L 181.0315 159.802275 
L 180.288032 161.925025 
L 179.319354 166.170526 
L 178.164226 172.538777 
L 177.987973 174.661528 
L 178.109621 176.784278 
L 178.688385 179.103089 
L 179.411031 181.029779 
L 180.447494 183.15253 
L 183.840401 189.520781 
L 184.954891 191.643531 
L 186.374625 193.766282 
L 187.443035 194.867889 
L 188.661488 195.889032 
L 192.207837 198.011783 
L 196.600455 200.134533 
L 199.115903 201.110292 
L 202.598136 202.257283 
L 213.706987 205.220418 
L 219.543421 206.488177 
L 222.461638 206.988152 
L 222.461638 206.988152 
" style="fill:none;stroke:#4a331e;stroke-width:1.5;"/>
   </g>
   <g id="LineCollection_15">
    <path clip-path="url(#p12ebc7cf9b)" d="M 225.379855 202.505102 
L 234.134506 203.735481 
L 237.052722 203.977697 
L 239.970939 204.050428 
L 242.889156 203.94669 
L 245.807373 203.672134 
L 248.72559 203.225503 
L 252.90855 202.257283 
L 254.562024 201.818163 
L 260.398457 199.948364 
L 269.153108 197.138054 
L 274.989542 195.346704 
L 279.057674 193.766282 
L 280.825976 192.879373 
L 283.744192 191.067504 
L 285.676362 189.520781 
L 287.696676 187.39803 
L 289.580626 184.745808 
L 292.844035 178.907029 
L 294.998894 174.661528 
L 295.768258 172.538777 
L 296.114299 170.416027 
L 295.909264 168.293277 
L 295.144863 166.170526 
L 294.002538 164.047776 
L 291.436177 159.802275 
L 286.603711 151.311273 
L 283.947241 147.065772 
L 283.744192 146.778486 
L 282.30156 144.943022 
L 280.043962 142.820272 
L 277.907759 141.351621 
L 274.989542 139.75404 
L 267.859149 136.45202 
L 266.234891 135.78235 
L 261.422783 134.32927 
L 253.7455 132.206519 
L 247.571026 130.083769 
L 245.807373 129.529746 
L 242.889156 128.926416 
L 239.970939 128.631767 
L 237.052722 128.580488 
L 234.134506 128.7107 
L 231.216289 128.989878 
L 228.298072 129.41737 
L 225.172048 130.083769 
L 222.461638 130.875466 
L 219.041089 132.206519 
L 214.553162 134.32927 
L 213.706987 134.764136 
L 210.743579 136.45202 
L 207.726482 138.574771 
L 204.952337 141.147066 
L 203.439265 142.820272 
L 200.138687 147.065772 
L 196.197686 152.411334 
L 193.279469 155.72935 
L 191.419223 157.679525 
L 189.715494 159.802275 
L 188.48024 161.925025 
L 187.443035 164.707782 
L 185.75334 170.416027 
L 185.267999 172.538777 
L 185.081118 174.661528 
L 185.3061 176.784278 
L 185.991849 178.907029 
L 187.443035 181.459212 
L 188.791651 183.15253 
L 190.871359 185.27528 
L 196.197686 190.138803 
L 199.115903 192.810501 
L 200.261126 193.766282 
L 202.03412 195.040576 
L 204.952337 196.709622 
L 207.92138 198.011783 
L 210.78877 199.078688 
L 214.01982 200.134533 
L 216.625204 200.880774 
L 219.543421 201.551837 
L 225.379855 202.505102 
L 225.379855 202.505102 
" style="fill:none;stroke:#5e3b1d;stroke-width:1.5;"/>
   </g>
   <g id="LineCollection_16">
    <path clip-path="url(#p12ebc7cf9b)" d="M 239.970939 200.217208 
L 243.949899 200.134533 
L 245.807373 200.002042 
L 248.72559 199.583564 
L 251.643807 198.957187 
L 254.938726 198.011783 
L 260.949396 195.889032 
L 271.660015 191.643531 
L 274.989542 189.852839 
L 275.554833 189.520781 
L 278.405664 187.39803 
L 280.825976 185.057888 
L 284.316183 181.029779 
L 286.662409 178.15732 
L 287.595883 176.784278 
L 288.797286 174.661528 
L 289.580626 172.184133 
L 289.702154 170.416027 
L 289.246765 168.293277 
L 288.329486 166.170526 
L 282.746434 155.556774 
L 280.036601 151.311273 
L 277.907759 148.55572 
L 276.44813 147.065772 
L 274.989542 145.886696 
L 272.071325 144.066356 
L 269.153108 142.644725 
L 263.316674 140.126291 
L 259.11381 138.574771 
L 251.643807 136.337787 
L 245.807373 134.780117 
L 242.889156 134.266086 
L 239.970939 134.08385 
L 236.213921 134.32927 
L 234.134506 134.677409 
L 231.216289 135.445741 
L 219.543421 139.256855 
L 216.337593 140.697521 
L 213.019945 142.820272 
L 210.287295 144.943022 
L 207.870554 147.087248 
L 204.952337 150.254021 
L 202.532837 153.434024 
L 200.971178 155.556774 
L 197.71755 159.802275 
L 196.197686 162.133514 
L 195.20071 164.047776 
L 193.586271 168.293277 
L 192.834655 170.416027 
L 192.23376 172.538777 
L 192.012506 174.661528 
L 192.3795 176.784278 
L 193.476754 178.907029 
L 196.197686 181.772772 
L 199.821882 185.27528 
L 203.917438 189.520781 
L 204.952337 190.387819 
L 207.870554 192.400992 
L 210.78877 193.918013 
L 213.706987 195.171032 
L 216.625204 196.207396 
L 219.543421 197.046968 
L 225.379855 198.203196 
L 234.134506 199.6715 
L 238.682177 200.134533 
L 239.970939 200.217208 
L 239.970939 200.217208 
" style="fill:none;stroke:#73441b;stroke-width:1.5;"/>
   </g>
   <g id="LineCollection_17">
    <path clip-path="url(#p12ebc7cf9b)" d="M 237.052722 196.1431 
L 239.970939 196.366204 
L 242.889156 196.414339 
L 245.807373 196.273018 
L 248.72559 195.919455 
L 248.874416 195.889032 
L 251.643807 195.30649 
L 254.562024 194.46139 
L 256.520477 193.766282 
L 257.480241 193.406977 
L 260.398457 192.184399 
L 261.632402 191.643531 
L 263.316674 190.838096 
L 265.941222 189.520781 
L 266.234891 189.353563 
L 269.153108 187.563267 
L 269.403856 187.39803 
L 271.964636 185.27528 
L 272.071325 185.1625 
L 273.946274 183.15253 
L 274.989542 181.768901 
L 275.601938 181.029779 
L 277.285154 178.907029 
L 277.907759 178.094732 
L 279.075895 176.784278 
L 280.700698 174.661528 
L 280.825976 174.40518 
L 281.713537 172.538777 
L 281.993366 170.416027 
L 281.697461 168.293277 
L 281.109849 166.170526 
L 280.825976 165.340139 
L 280.399214 164.047776 
L 279.569341 161.925025 
L 278.590514 159.802275 
L 277.907759 158.523739 
L 277.451217 157.679525 
L 276.20438 155.556774 
L 274.989542 153.584213 
L 274.896151 153.434024 
L 273.339473 151.311273 
L 272.071325 149.977593 
L 271.158299 149.188523 
L 269.153108 147.863754 
L 267.519912 147.065772 
L 266.234891 146.501119 
L 263.316674 145.467685 
L 261.587141 144.943022 
L 260.398457 144.543279 
L 257.480241 143.633909 
L 254.701048 142.820272 
L 254.562024 142.77791 
L 251.643807 142.024501 
L 248.72559 141.391977 
L 245.807373 140.956632 
L 242.889156 140.820626 
L 239.970939 141.074471 
L 237.052722 141.788549 
L 234.527654 142.820272 
L 234.134506 142.958533 
L 231.216289 144.191262 
L 229.387624 144.943022 
L 228.298072 145.304264 
L 225.379855 146.065935 
L 222.461638 146.640501 
L 220.29545 147.065772 
L 219.543421 147.201334 
L 216.625204 148.023069 
L 214.189611 149.188523 
L 213.706987 149.435946 
L 211.212091 151.311273 
L 210.78877 151.69218 
L 209.232385 153.434024 
L 207.870554 155.230806 
L 207.641936 155.556774 
L 206.211247 157.679525 
L 204.952337 159.522829 
L 204.759266 159.802275 
L 203.345298 161.925025 
L 202.172128 164.047776 
L 202.03412 164.379994 
L 201.257744 166.170526 
L 200.58624 168.293277 
L 200.082989 170.416027 
L 199.778235 172.538777 
L 199.878291 174.661528 
L 200.629254 176.784278 
L 202.015464 178.907029 
L 202.03412 178.929155 
L 203.53231 181.029779 
L 204.952337 182.932995 
L 205.096636 183.15253 
L 206.708079 185.27528 
L 207.870554 186.519105 
L 208.762256 187.39803 
L 210.78877 188.950943 
L 211.648272 189.520781 
L 213.706987 190.667284 
L 215.785325 191.643531 
L 216.625204 192.001861 
L 219.543421 193.024646 
L 222.424248 193.766282 
L 222.461638 193.775795 
L 225.379855 194.355316 
L 228.298072 194.845396 
L 231.216289 195.319233 
L 234.134506 195.772092 
L 235.064561 195.889032 
L 237.052722 196.1431 
" style="fill:none;stroke:#874c19;stroke-width:1.5;"/>
   </g>
   <g id="LineCollection_18">
    <path clip-path="url(#p12ebc7cf9b)" d="M 234.134506 191.996671 
L 237.052722 192.295019 
L 239.970939 192.458301 
L 242.889156 192.454119 
L 245.807373 192.275072 
L 248.72559 191.907216 
L 250.031012 191.643531 
L 251.643807 191.29553 
L 254.562024 190.41674 
L 256.922232 189.520781 
L 257.480241 189.304166 
L 260.398457 187.936326 
L 261.402776 187.39803 
L 263.316674 186.284878 
L 264.817413 185.27528 
L 266.234891 184.14046 
L 267.322852 183.15253 
L 269.111708 181.029779 
L 269.153108 180.966415 
L 270.508291 178.907029 
L 271.633678 176.784278 
L 272.071325 175.764892 
L 272.632038 174.661528 
L 273.406551 172.538777 
L 273.809243 170.416027 
L 273.865569 168.293277 
L 273.652419 166.170526 
L 273.205259 164.047776 
L 272.518022 161.925025 
L 272.071325 160.877346 
L 271.630217 159.802275 
L 270.590238 157.679525 
L 269.378743 155.556774 
L 269.153108 155.23034 
L 267.718714 153.434024 
L 266.234891 152.143112 
L 264.903775 151.311273 
L 263.316674 150.562365 
L 260.398457 149.62775 
L 258.355131 149.188523 
L 257.480241 148.998716 
L 254.562024 148.52981 
L 251.643807 148.176478 
L 248.72559 147.89594 
L 245.807373 147.671139 
L 242.889156 147.545743 
L 239.970939 147.617726 
L 237.052722 147.970844 
L 234.134506 148.60836 
L 232.128341 149.188523 
L 231.216289 149.427066 
L 228.298072 150.275327 
L 225.379855 151.123296 
L 224.683736 151.311273 
L 222.461638 151.967748 
L 219.543421 152.971315 
L 218.532513 153.434024 
L 216.625204 154.51527 
L 215.313866 155.556774 
L 213.706987 157.084446 
L 213.197459 157.679525 
L 211.407728 159.802275 
L 210.78877 160.541245 
L 209.730944 161.925025 
L 208.316278 164.047776 
L 207.870554 164.987926 
L 207.319878 166.170526 
L 206.772133 168.293277 
L 206.613439 170.416027 
L 206.768492 172.538777 
L 207.208609 174.661528 
L 207.870554 176.615343 
L 207.919657 176.784278 
L 208.757158 178.907029 
L 209.851923 181.029779 
L 210.78877 182.453267 
L 211.26926 183.15253 
L 213.228325 185.27528 
L 213.706987 185.67489 
L 216.101353 187.39803 
L 216.625204 187.704156 
L 219.543421 189.122364 
L 220.638697 189.520781 
L 222.461638 190.10729 
L 225.379855 190.764425 
L 228.298072 191.233796 
L 231.216289 191.626834 
L 231.354333 191.643531 
L 234.134506 191.996671 
" style="fill:none;stroke:#9a5517;stroke-width:1.5;"/>
   </g>
   <g id="LineCollection_19">
    <path clip-path="url(#p12ebc7cf9b)" d="M 228.298072 187.690586 
L 231.216289 188.068617 
L 234.134506 188.333385 
L 237.052722 188.476443 
L 239.970939 188.443709 
L 242.889156 188.20319 
L 245.807373 187.785489 
L 247.97041 187.39803 
L 248.72559 187.253395 
L 251.643807 186.616076 
L 254.562024 185.823944 
L 256.068225 185.27528 
L 257.480241 184.7416 
L 260.398457 183.237608 
L 260.52669 183.15253 
L 263.179698 181.029779 
L 263.316674 180.885978 
L 264.850423 178.907029 
L 266.021582 176.784278 
L 266.234891 176.238587 
L 266.824352 174.661528 
L 267.356007 172.538777 
L 267.619416 170.416027 
L 267.604416 168.293277 
L 267.318645 166.170526 
L 266.776031 164.047776 
L 266.234891 162.562164 
L 265.986828 161.925025 
L 264.93914 159.802275 
L 263.584588 157.679525 
L 263.316674 157.356769 
L 261.351142 155.556774 
L 260.398457 154.950249 
L 257.480241 153.762826 
L 256.037134 153.434024 
L 254.562024 153.152072 
L 251.643807 152.837648 
L 248.72559 152.642558 
L 245.807373 152.47258 
L 242.889156 152.315721 
L 239.970939 152.254829 
L 237.052722 152.412539 
L 234.134506 152.865859 
L 231.892728 153.434024 
L 231.216289 153.611317 
L 228.298072 154.609606 
L 225.922334 155.556774 
L 225.379855 155.80413 
L 222.461638 157.279648 
L 221.781065 157.679525 
L 219.543421 159.17374 
L 218.752545 159.802275 
L 216.625204 161.591528 
L 216.284704 161.925025 
L 214.29763 164.047776 
L 213.706987 164.875781 
L 212.899595 166.170526 
L 212.145572 168.293277 
L 211.91282 170.416027 
L 212.045309 172.538777 
L 212.444209 174.661528 
L 213.10216 176.784278 
L 213.706987 178.134192 
L 214.072039 178.907029 
L 215.473385 181.029779 
L 216.625204 182.318918 
L 217.527696 183.15253 
L 219.543421 184.64649 
L 220.643527 185.27528 
L 222.461638 186.144515 
L 225.379855 187.105579 
L 226.761073 187.39803 
L 228.298072 187.690586 
" style="fill:none;stroke:#ae5d15;stroke-width:1.5;"/>
   </g>
   <g id="LineCollection_20">
    <path clip-path="url(#p12ebc7cf9b)" d="M 228.298072 183.81049 
L 231.216289 184.320811 
L 234.134506 184.556042 
L 237.052722 184.533692 
L 239.970939 184.228307 
L 242.889156 183.650129 
L 244.866131 183.15253 
L 245.807373 182.885022 
L 248.72559 182.062008 
L 251.643807 181.275726 
L 252.483037 181.029779 
L 254.562024 180.291879 
L 257.289922 178.907029 
L 257.480241 178.776339 
L 259.415964 176.784278 
L 260.398457 175.25608 
L 260.681365 174.661528 
L 261.295926 172.538777 
L 261.529286 170.416027 
L 261.387528 168.293277 
L 260.892517 166.170526 
L 260.398457 164.883033 
L 260.027808 164.047776 
L 258.690999 161.925025 
L 257.480241 160.554417 
L 256.560048 159.802275 
L 254.562024 158.658613 
L 251.643807 157.714078 
L 251.4688 157.679525 
L 248.72559 157.23277 
L 245.807373 156.900334 
L 242.889156 156.646377 
L 239.970939 156.520211 
L 237.052722 156.646258 
L 234.134506 157.14469 
L 232.390211 157.679525 
L 231.216289 158.090596 
L 228.298072 159.469057 
L 227.686943 159.802275 
L 225.379855 161.189638 
L 224.24958 161.925025 
L 222.461638 163.14636 
L 221.285632 164.047776 
L 219.543421 165.569168 
L 218.975137 166.170526 
L 217.566125 168.293277 
L 216.883152 170.416027 
L 216.784416 172.538777 
L 217.162467 174.661528 
L 218.023806 176.784278 
L 219.454309 178.907029 
L 219.543421 179.00604 
L 221.893509 181.029779 
L 222.461638 181.427124 
L 225.379855 182.914801 
L 226.076904 183.15253 
L 228.298072 183.81049 
" style="fill:none;stroke:#c36613;stroke-width:1.5;"/>
   </g>
   <g id="LineCollection_21">
    <path clip-path="url(#p12ebc7cf9b)" d="M 228.298072 179.138571 
L 231.216289 179.885441 
L 234.134506 180.160676 
L 237.052722 179.990545 
L 239.970939 179.398343 
L 241.508539 178.907029 
L 242.889156 178.389466 
L 245.807373 177.053898 
L 246.366799 176.784278 
L 248.72559 175.331467 
L 249.758174 174.661528 
L 251.643807 172.843801 
L 251.923538 172.538777 
L 252.987255 170.416027 
L 253.163191 168.293277 
L 252.527799 166.170526 
L 251.643807 164.958786 
L 250.793379 164.047776 
L 248.72559 162.813378 
L 246.34423 161.925025 
L 245.807373 161.780684 
L 242.889156 161.30436 
L 239.970939 161.165975 
L 237.052722 161.454729 
L 235.336436 161.925025 
L 234.134506 162.313248 
L 231.216289 163.737638 
L 230.685611 164.047776 
L 228.298072 165.523044 
L 227.321795 166.170526 
L 225.379855 167.618516 
L 224.608929 168.293277 
L 222.961776 170.416027 
L 222.461638 172.11205 
L 222.366673 172.538777 
L 222.461638 173.098451 
L 222.801726 174.661528 
L 224.383263 176.784278 
L 225.379855 177.594962 
L 227.759548 178.907029 
L 228.298072 179.138571 
" style="fill:none;stroke:#d76e12;stroke-width:1.5;"/>
   </g>
   <g id="LineCollection_22">
    <path clip-path="url(#p12ebc7cf9b)" d="M 237.052722 171.358271 
L 238.218994 170.416027 
L 237.052722 170.145994 
L 236.508689 170.416027 
L 237.052722 171.358271 
" style="fill:none;stroke:#eb7710;stroke-width:1.5;"/>
   </g>
   <g id="LineCollection_23"/>
   <g id="patch_3">
    <path d="M 54 252 
L 54 34.56 
" style="fill:none;stroke:#000000;stroke-linecap:square;stroke-linejoin:miter;stroke-width:0.8;"/>
   </g>
   <g id="patch_4">
    <path d="M 388.8 252 
L 388.8 34.56 
" style="fill:none;stroke:#000000;stroke-linecap:square;stroke-linejoin:miter;stroke-width:0.8;"/>
   </g>
   <g id="patch_5">
    <path d="M 54 252 
L 388.8 252 
" style="fill:none;stroke:#000000;stroke-linecap:square;stroke-linejoin:miter;stroke-width:0.8;"/>
   </g>
   <g id="patch_6">
    <path d="M 54 34.56 
L 388.8 34.56 
" style="fill:none;stroke:#000000;stroke-linecap:square;stroke-linejoin:miter;stroke-width:0.8;"/>
   </g>
   <g id="text_13">
    <!-- Reduced Features for Training Fold 0 -->
    <defs>
     <path d="M 44.28125 53.078125 
L 44.28125 44.578125 
Q 40.484375 46.53125 36.375 47.5 
Q 32.28125 48.484375 27.875 48.484375 
Q 21.1875 48.484375 17.84375 46.4375 
Q 14.5 44.390625 14.5 40.28125 
Q 14.5 37.15625 16.890625 35.375 
Q 19.28125 33.59375 26.515625 31.984375 
L 29.59375 31.296875 
Q 39.15625 29.25 43.1875 25.515625 
Q 47.21875 21.78125 47.21875 15.09375 
Q 47.21875 7.46875 41.1875 3.015625 
Q 35.15625 -1.421875 24.609375 -1.421875 
Q 20.21875 -1.421875 15.453125 -0.5625 
Q 10.6875 0.296875 5.421875 2 
L 5.421875 11.28125 
Q 10.40625 8.6875 15.234375 7.390625 
Q 20.0625 6.109375 24.8125 6.109375 
Q 31.15625 6.109375 34.5625 8.28125 
Q 37.984375 10.453125 37.984375 14.40625 
Q 37.984375 18.0625 35.515625 20.015625 
Q 33.0625 21.96875 24.703125 23.78125 
L 21.578125 24.515625 
Q 13.234375 26.265625 9.515625 29.90625 
Q 5.8125 33.546875 5.8125 39.890625 
Q 5.8125 47.609375 11.28125 51.796875 
Q 16.75 56 26.8125 56 
Q 31.78125 56 36.171875 55.265625 
Q 40.578125 54.546875 44.28125 53.078125 
z
" id="DejaVuSans-115"/>
     <path d="M 37.109375 75.984375 
L 37.109375 68.5 
L 28.515625 68.5 
Q 23.6875 68.5 21.796875 66.546875 
Q 19.921875 64.59375 19.921875 59.515625 
L 19.921875 54.6875 
L 34.71875 54.6875 
L 34.71875 47.703125 
L 19.921875 47.703125 
L 19.921875 0 
L 10.890625 0 
L 10.890625 47.703125 
L 2.296875 47.703125 
L 2.296875 54.6875 
L 10.890625 54.6875 
L 10.890625 58.5 
Q 10.890625 67.625 15.140625 71.796875 
Q 19.390625 75.984375 28.609375 75.984375 
z
" id="DejaVuSans-102"/>
     <path d="M 30.609375 48.390625 
Q 23.390625 48.390625 19.1875 42.75 
Q 14.984375 37.109375 14.984375 27.296875 
Q 14.984375 17.484375 19.15625 11.84375 
Q 23.34375 6.203125 30.609375 6.203125 
Q 37.796875 6.203125 41.984375 11.859375 
Q 46.1875 17.53125 46.1875 27.296875 
Q 46.1875 37.015625 41.984375 42.703125 
Q 37.796875 48.390625 30.609375 48.390625 
z
M 30.609375 56 
Q 42.328125 56 49.015625 48.375 
Q 55.71875 40.765625 55.71875 27.296875 
Q 55.71875 13.875 49.015625 6.21875 
Q 42.328125 -1.421875 30.609375 -1.421875 
Q 18.84375 -1.421875 12.171875 6.21875 
Q 5.515625 13.875 5.515625 27.296875 
Q 5.515625 40.765625 12.171875 48.375 
Q 18.84375 56 30.609375 56 
z
" id="DejaVuSans-111"/>
     <path d="M -0.296875 72.90625 
L 61.375 72.90625 
L 61.375 64.59375 
L 35.5 64.59375 
L 35.5 0 
L 25.59375 0 
L 25.59375 64.59375 
L -0.296875 64.59375 
z
" id="DejaVuSans-84"/>
     <path d="M 9.421875 54.6875 
L 18.40625 54.6875 
L 18.40625 0 
L 9.421875 0 
z
M 9.421875 75.984375 
L 18.40625 75.984375 
L 18.40625 64.59375 
L 9.421875 64.59375 
z
" id="DejaVuSans-105"/>
     <path d="M 54.890625 33.015625 
L 54.890625 0 
L 45.90625 0 
L 45.90625 32.71875 
Q 45.90625 40.484375 42.875 44.328125 
Q 39.84375 48.1875 33.796875 48.1875 
Q 26.515625 48.1875 22.3125 43.546875 
Q 18.109375 38.921875 18.109375 30.90625 
L 18.109375 0 
L 9.078125 0 
L 9.078125 54.6875 
L 18.109375 54.6875 
L 18.109375 46.1875 
Q 21.34375 51.125 25.703125 53.5625 
Q 30.078125 56 35.796875 56 
Q 45.21875 56 50.046875 50.171875 
Q 54.890625 44.34375 54.890625 33.015625 
z
" id="DejaVuSans-110"/>
     <path d="M 45.40625 27.984375 
Q 45.40625 37.75 41.375 43.109375 
Q 37.359375 48.484375 30.078125 48.484375 
Q 22.859375 48.484375 18.828125 43.109375 
Q 14.796875 37.75 14.796875 27.984375 
Q 14.796875 18.265625 18.828125 12.890625 
Q 22.859375 7.515625 30.078125 7.515625 
Q 37.359375 7.515625 41.375 12.890625 
Q 45.40625 18.265625 45.40625 27.984375 
z
M 54.390625 6.78125 
Q 54.390625 -7.171875 48.1875 -13.984375 
Q 42 -20.796875 29.203125 -20.796875 
Q 24.46875 -20.796875 20.265625 -20.09375 
Q 16.0625 -19.390625 12.109375 -17.921875 
L 12.109375 -9.1875 
Q 16.0625 -11.328125 19.921875 -12.34375 
Q 23.78125 -13.375 27.78125 -13.375 
Q 36.625 -13.375 41.015625 -8.765625 
Q 45.40625 -4.15625 45.40625 5.171875 
L 45.40625 9.625 
Q 42.625 4.78125 38.28125 2.390625 
Q 33.9375 0 27.875 0 
Q 17.828125 0 11.671875 7.65625 
Q 5.515625 15.328125 5.515625 27.984375 
Q 5.515625 40.671875 11.671875 48.328125 
Q 17.828125 56 27.875 56 
Q 33.9375 56 38.28125 53.609375 
Q 42.625 51.21875 45.40625 46.390625 
L 45.40625 54.6875 
L 54.390625 54.6875 
z
" id="DejaVuSans-103"/>
     <path d="M 9.421875 75.984375 
L 18.40625 75.984375 
L 18.40625 0 
L 9.421875 0 
z
" id="DejaVuSans-108"/>
    </defs>
    <g transform="translate(110.139375 28.56)scale(0.12 -0.12)">
     <use xlink:href="#DejaVuSans-82"/>
     <use x="69.419922" xlink:href="#DejaVuSans-101"/>
     <use x="130.943359" xlink:href="#DejaVuSans-100"/>
     <use x="194.419922" xlink:href="#DejaVuSans-117"/>
     <use x="257.798828" xlink:href="#DejaVuSans-99"/>
     <use x="312.779297" xlink:href="#DejaVuSans-101"/>
     <use x="374.302734" xlink:href="#DejaVuSans-100"/>
     <use x="437.779297" xlink:href="#DejaVuSans-32"/>
     <use x="469.566406" xlink:href="#DejaVuSans-70"/>
     <use x="527.007812" xlink:href="#DejaVuSans-101"/>
     <use x="588.53125" xlink:href="#DejaVuSans-97"/>
     <use x="649.810547" xlink:href="#DejaVuSans-116"/>
     <use x="689.019531" xlink:href="#DejaVuSans-117"/>
     <use x="752.398438" xlink:href="#DejaVuSans-114"/>
     <use x="793.480469" xlink:href="#DejaVuSans-101"/>
     <use x="855.003906" xlink:href="#DejaVuSans-115"/>
     <use x="907.103516" xlink:href="#DejaVuSans-32"/>
     <use x="938.890625" xlink:href="#DejaVuSans-102"/>
     <use x="974.095703" xlink:href="#DejaVuSans-111"/>
     <use x="1035.277344" xlink:href="#DejaVuSans-114"/>
     <use x="1076.390625" xlink:href="#DejaVuSans-32"/>
     <use x="1108.177734" xlink:href="#DejaVuSans-84"/>
     <use x="1169.042969" xlink:href="#DejaVuSans-114"/>
     <use x="1210.15625" xlink:href="#DejaVuSans-97"/>
     <use x="1271.435547" xlink:href="#DejaVuSans-105"/>
     <use x="1299.21875" xlink:href="#DejaVuSans-110"/>
     <use x="1362.597656" xlink:href="#DejaVuSans-105"/>
     <use x="1390.380859" xlink:href="#DejaVuSans-110"/>
     <use x="1453.759766" xlink:href="#DejaVuSans-103"/>
     <use x="1517.236328" xlink:href="#DejaVuSans-32"/>
     <use x="1549.023438" xlink:href="#DejaVuSans-70"/>
     <use x="1606.496094" xlink:href="#DejaVuSans-111"/>
     <use x="1667.677734" xlink:href="#DejaVuSans-108"/>
     <use x="1695.460938" xlink:href="#DejaVuSans-100"/>
     <use x="1758.9375" xlink:href="#DejaVuSans-32"/>
     <use x="1790.724609" xlink:href="#DejaVuSans-48"/>
    </g>
   </g>
   <g id="legend_1">
    <g id="patch_7">
     <path d="M 315.435938 71.91625 
L 381.8 71.91625 
Q 383.8 71.91625 383.8 69.91625 
L 383.8 41.56 
Q 383.8 39.56 381.8 39.56 
L 315.435938 39.56 
Q 313.435938 39.56 313.435938 41.56 
L 313.435938 69.91625 
Q 313.435938 71.91625 315.435938 71.91625 
z
" style="fill:#ffffff;opacity:0.8;stroke:#cccccc;stroke-linejoin:miter;"/>
    </g>
    <g id="line2d_11">
     <path d="M 317.435938 47.658437 
L 337.435938 47.658437 
" style="fill:none;stroke:#1f77b4;stroke-linecap:square;stroke-width:1.5;"/>
    </g>
    <g id="line2d_12"/>
    <g id="text_14">
     <!-- class 0 -->
     <g transform="translate(345.435938 51.158437)scale(0.1 -0.1)">
      <use xlink:href="#DejaVuSans-99"/>
      <use x="54.980469" xlink:href="#DejaVuSans-108"/>
      <use x="82.763672" xlink:href="#DejaVuSans-97"/>
      <use x="144.042969" xlink:href="#DejaVuSans-115"/>
      <use x="196.142578" xlink:href="#DejaVuSans-115"/>
      <use x="248.242188" xlink:href="#DejaVuSans-32"/>
      <use x="280.029297" xlink:href="#DejaVuSans-48"/>
     </g>
    </g>
    <g id="line2d_13">
     <path d="M 317.435938 62.336562 
L 337.435938 62.336562 
" style="fill:none;stroke:#ff7f0e;stroke-linecap:square;stroke-width:1.5;"/>
    </g>
    <g id="line2d_14"/>
    <g id="text_15">
     <!-- class 1 -->
     <g transform="translate(345.435938 65.836562)scale(0.1 -0.1)">
      <use xlink:href="#DejaVuSans-99"/>
      <use x="54.980469" xlink:href="#DejaVuSans-108"/>
      <use x="82.763672" xlink:href="#DejaVuSans-97"/>
      <use x="144.042969" xlink:href="#DejaVuSans-115"/>
      <use x="196.142578" xlink:href="#DejaVuSans-115"/>
      <use x="248.242188" xlink:href="#DejaVuSans-32"/>
      <use x="280.029297" xlink:href="#DejaVuSans-49"/>
     </g>
    </g>
   </g>
  </g>
 </g>
 <defs>
  <clipPath id="p12ebc7cf9b">
   <rect height="217.44" width="334.8" x="54" y="34.56"/>
  </clipPath>
 </defs>
</svg>
