<?xml version="1.0" encoding="utf-8" standalone="no"?>
<!DOCTYPE svg PUBLIC "-//W3C//DTD SVG 1.1//EN"
  "http://www.w3.org/Graphics/SVG/1.1/DTD/svg11.dtd">
<!-- Created with matplotlib (https://matplotlib.org/) -->
<svg height="288pt" version="1.1" viewBox="0 0 432 288" width="432pt" xmlns="http://www.w3.org/2000/svg" xmlns:xlink="http://www.w3.org/1999/xlink">
 <defs>
  <style type="text/css">
*{stroke-linecap:butt;stroke-linejoin:round;}
  </style>
 </defs>
 <g id="figure_1">
  <g id="patch_1">
   <path d="M 0 288 
L 432 288 
L 432 0 
L 0 0 
z
" style="fill:#ffffff;"/>
  </g>
  <g id="axes_1">
   <g id="patch_2">
    <path d="M 54 252 
L 388.8 252 
L 388.8 34.56 
L 54 34.56 
z
" style="fill:#ffffff;"/>
   </g>
   <g id="matplotlib.axis_1">
    <g id="xtick_1">
     <g id="line2d_1">
      <defs>
       <path d="M 0 0 
L 0 3.5 
" id="m2d1eed1b50" style="stroke:#000000;stroke-width:0.8;"/>
      </defs>
      <g>
       <use style="stroke:#000000;stroke-width:0.8;" x="69.218182" xlink:href="#m2d1eed1b50" y="252"/>
      </g>
     </g>
     <g id="text_1">
      <!-- 0.0 -->
      <defs>
       <path d="M 31.78125 66.40625 
Q 24.171875 66.40625 20.328125 58.90625 
Q 16.5 51.421875 16.5 36.375 
Q 16.5 21.390625 20.328125 13.890625 
Q 24.171875 6.390625 31.78125 6.390625 
Q 39.453125 6.390625 43.28125 13.890625 
Q 47.125 21.390625 47.125 36.375 
Q 47.125 51.421875 43.28125 58.90625 
Q 39.453125 66.40625 31.78125 66.40625 
z
M 31.78125 74.21875 
Q 44.046875 74.21875 50.515625 64.515625 
Q 56.984375 54.828125 56.984375 36.375 
Q 56.984375 17.96875 50.515625 8.265625 
Q 44.046875 -1.421875 31.78125 -1.421875 
Q 19.53125 -1.421875 13.0625 8.265625 
Q 6.59375 17.96875 6.59375 36.375 
Q 6.59375 54.828125 13.0625 64.515625 
Q 19.53125 74.21875 31.78125 74.21875 
z
" id="DejaVuSans-48"/>
       <path d="M 10.6875 12.40625 
L 21 12.40625 
L 21 0 
L 10.6875 0 
z
" id="DejaVuSans-46"/>
      </defs>
      <g transform="translate(61.266619 266.598437)scale(0.1 -0.1)">
       <use xlink:href="#DejaVuSans-48"/>
       <use x="63.623047" xlink:href="#DejaVuSans-46"/>
       <use x="95.410156" xlink:href="#DejaVuSans-48"/>
      </g>
     </g>
    </g>
    <g id="xtick_2">
     <g id="line2d_2">
      <g>
       <use style="stroke:#000000;stroke-width:0.8;" x="131.037482" xlink:href="#m2d1eed1b50" y="252"/>
      </g>
     </g>
     <g id="text_2">
      <!-- 0.2 -->
      <defs>
       <path d="M 19.1875 8.296875 
L 53.609375 8.296875 
L 53.609375 0 
L 7.328125 0 
L 7.328125 8.296875 
Q 12.9375 14.109375 22.625 23.890625 
Q 32.328125 33.6875 34.8125 36.53125 
Q 39.546875 41.84375 41.421875 45.53125 
Q 43.3125 49.21875 43.3125 52.78125 
Q 43.3125 58.59375 39.234375 62.25 
Q 35.15625 65.921875 28.609375 65.921875 
Q 23.96875 65.921875 18.8125 64.3125 
Q 13.671875 62.703125 7.8125 59.421875 
L 7.8125 69.390625 
Q 13.765625 71.78125 18.9375 73 
Q 24.125 74.21875 28.421875 74.21875 
Q 39.75 74.21875 46.484375 68.546875 
Q 53.21875 62.890625 53.21875 53.421875 
Q 53.21875 48.921875 51.53125 44.890625 
Q 49.859375 40.875 45.40625 35.40625 
Q 44.1875 33.984375 37.640625 27.21875 
Q 31.109375 20.453125 19.1875 8.296875 
z
" id="DejaVuSans-50"/>
      </defs>
      <g transform="translate(123.08592 266.598437)scale(0.1 -0.1)">
       <use xlink:href="#DejaVuSans-48"/>
       <use x="63.623047" xlink:href="#DejaVuSans-46"/>
       <use x="95.410156" xlink:href="#DejaVuSans-50"/>
      </g>
     </g>
    </g>
    <g id="xtick_3">
     <g id="line2d_3">
      <g>
       <use style="stroke:#000000;stroke-width:0.8;" x="192.856783" xlink:href="#m2d1eed1b50" y="252"/>
      </g>
     </g>
     <g id="text_3">
      <!-- 0.4 -->
      <defs>
       <path d="M 37.796875 64.3125 
L 12.890625 25.390625 
L 37.796875 25.390625 
z
M 35.203125 72.90625 
L 47.609375 72.90625 
L 47.609375 25.390625 
L 58.015625 25.390625 
L 58.015625 17.1875 
L 47.609375 17.1875 
L 47.609375 0 
L 37.796875 0 
L 37.796875 17.1875 
L 4.890625 17.1875 
L 4.890625 26.703125 
z
" id="DejaVuSans-52"/>
      </defs>
      <g transform="translate(184.90522 266.598437)scale(0.1 -0.1)">
       <use xlink:href="#DejaVuSans-48"/>
       <use x="63.623047" xlink:href="#DejaVuSans-46"/>
       <use x="95.410156" xlink:href="#DejaVuSans-52"/>
      </g>
     </g>
    </g>
    <g id="xtick_4">
     <g id="line2d_4">
      <g>
       <use style="stroke:#000000;stroke-width:0.8;" x="254.676083" xlink:href="#m2d1eed1b50" y="252"/>
      </g>
     </g>
     <g id="text_4">
      <!-- 0.6 -->
      <defs>
       <path d="M 33.015625 40.375 
Q 26.375 40.375 22.484375 35.828125 
Q 18.609375 31.296875 18.609375 23.390625 
Q 18.609375 15.53125 22.484375 10.953125 
Q 26.375 6.390625 33.015625 6.390625 
Q 39.65625 6.390625 43.53125 10.953125 
Q 47.40625 15.53125 47.40625 23.390625 
Q 47.40625 31.296875 43.53125 35.828125 
Q 39.65625 40.375 33.015625 40.375 
z
M 52.59375 71.296875 
L 52.59375 62.3125 
Q 48.875 64.0625 45.09375 64.984375 
Q 41.3125 65.921875 37.59375 65.921875 
Q 27.828125 65.921875 22.671875 59.328125 
Q 17.53125 52.734375 16.796875 39.40625 
Q 19.671875 43.65625 24.015625 45.921875 
Q 28.375 48.1875 33.59375 48.1875 
Q 44.578125 48.1875 50.953125 41.515625 
Q 57.328125 34.859375 57.328125 23.390625 
Q 57.328125 12.15625 50.6875 5.359375 
Q 44.046875 -1.421875 33.015625 -1.421875 
Q 20.359375 -1.421875 13.671875 8.265625 
Q 6.984375 17.96875 6.984375 36.375 
Q 6.984375 53.65625 15.1875 63.9375 
Q 23.390625 74.21875 37.203125 74.21875 
Q 40.921875 74.21875 44.703125 73.484375 
Q 48.484375 72.75 52.59375 71.296875 
z
" id="DejaVuSans-54"/>
      </defs>
      <g transform="translate(246.724521 266.598437)scale(0.1 -0.1)">
       <use xlink:href="#DejaVuSans-48"/>
       <use x="63.623047" xlink:href="#DejaVuSans-46"/>
       <use x="95.410156" xlink:href="#DejaVuSans-54"/>
      </g>
     </g>
    </g>
    <g id="xtick_5">
     <g id="line2d_5">
      <g>
       <use style="stroke:#000000;stroke-width:0.8;" x="316.495383" xlink:href="#m2d1eed1b50" y="252"/>
      </g>
     </g>
     <g id="text_5">
      <!-- 0.8 -->
      <defs>
       <path d="M 31.78125 34.625 
Q 24.75 34.625 20.71875 30.859375 
Q 16.703125 27.09375 16.703125 20.515625 
Q 16.703125 13.921875 20.71875 10.15625 
Q 24.75 6.390625 31.78125 6.390625 
Q 38.8125 6.390625 42.859375 10.171875 
Q 46.921875 13.96875 46.921875 20.515625 
Q 46.921875 27.09375 42.890625 30.859375 
Q 38.875 34.625 31.78125 34.625 
z
M 21.921875 38.8125 
Q 15.578125 40.375 12.03125 44.71875 
Q 8.5 49.078125 8.5 55.328125 
Q 8.5 64.0625 14.71875 69.140625 
Q 20.953125 74.21875 31.78125 74.21875 
Q 42.671875 74.21875 48.875 69.140625 
Q 55.078125 64.0625 55.078125 55.328125 
Q 55.078125 49.078125 51.53125 44.71875 
Q 48 40.375 41.703125 38.8125 
Q 48.828125 37.15625 52.796875 32.3125 
Q 56.78125 27.484375 56.78125 20.515625 
Q 56.78125 9.90625 50.3125 4.234375 
Q 43.84375 -1.421875 31.78125 -1.421875 
Q 19.734375 -1.421875 13.25 4.234375 
Q 6.78125 9.90625 6.78125 20.515625 
Q 6.78125 27.484375 10.78125 32.3125 
Q 14.796875 37.15625 21.921875 38.8125 
z
M 18.3125 54.390625 
Q 18.3125 48.734375 21.84375 45.5625 
Q 25.390625 42.390625 31.78125 42.390625 
Q 38.140625 42.390625 41.71875 45.5625 
Q 45.3125 48.734375 45.3125 54.390625 
Q 45.3125 60.0625 41.71875 63.234375 
Q 38.140625 66.40625 31.78125 66.40625 
Q 25.390625 66.40625 21.84375 63.234375 
Q 18.3125 60.0625 18.3125 54.390625 
z
" id="DejaVuSans-56"/>
      </defs>
      <g transform="translate(308.543821 266.598437)scale(0.1 -0.1)">
       <use xlink:href="#DejaVuSans-48"/>
       <use x="63.623047" xlink:href="#DejaVuSans-46"/>
       <use x="95.410156" xlink:href="#DejaVuSans-56"/>
      </g>
     </g>
    </g>
    <g id="xtick_6">
     <g id="line2d_6">
      <g>
       <use style="stroke:#000000;stroke-width:0.8;" x="378.314684" xlink:href="#m2d1eed1b50" y="252"/>
      </g>
     </g>
     <g id="text_6">
      <!-- 1.0 -->
      <defs>
       <path d="M 12.40625 8.296875 
L 28.515625 8.296875 
L 28.515625 63.921875 
L 10.984375 60.40625 
L 10.984375 69.390625 
L 28.421875 72.90625 
L 38.28125 72.90625 
L 38.28125 8.296875 
L 54.390625 8.296875 
L 54.390625 0 
L 12.40625 0 
z
" id="DejaVuSans-49"/>
      </defs>
      <g transform="translate(370.363121 266.598437)scale(0.1 -0.1)">
       <use xlink:href="#DejaVuSans-49"/>
       <use x="63.623047" xlink:href="#DejaVuSans-46"/>
       <use x="95.410156" xlink:href="#DejaVuSans-48"/>
      </g>
     </g>
    </g>
    <g id="text_7">
     <!-- False Positive Rate -->
     <defs>
      <path d="M 9.8125 72.90625 
L 51.703125 72.90625 
L 51.703125 64.59375 
L 19.671875 64.59375 
L 19.671875 43.109375 
L 48.578125 43.109375 
L 48.578125 34.8125 
L 19.671875 34.8125 
L 19.671875 0 
L 9.8125 0 
z
" id="DejaVuSans-70"/>
      <path d="M 34.28125 27.484375 
Q 23.390625 27.484375 19.1875 25 
Q 14.984375 22.515625 14.984375 16.5 
Q 14.984375 11.71875 18.140625 8.90625 
Q 21.296875 6.109375 26.703125 6.109375 
Q 34.1875 6.109375 38.703125 11.40625 
Q 43.21875 16.703125 43.21875 25.484375 
L 43.21875 27.484375 
z
M 52.203125 31.203125 
L 52.203125 0 
L 43.21875 0 
L 43.21875 8.296875 
Q 40.140625 3.328125 35.546875 0.953125 
Q 30.953125 -1.421875 24.3125 -1.421875 
Q 15.921875 -1.421875 10.953125 3.296875 
Q 6 8.015625 6 15.921875 
Q 6 25.140625 12.171875 29.828125 
Q 18.359375 34.515625 30.609375 34.515625 
L 43.21875 34.515625 
L 43.21875 35.40625 
Q 43.21875 41.609375 39.140625 45 
Q 35.0625 48.390625 27.6875 48.390625 
Q 23 48.390625 18.546875 47.265625 
Q 14.109375 46.140625 10.015625 43.890625 
L 10.015625 52.203125 
Q 14.9375 54.109375 19.578125 55.046875 
Q 24.21875 56 28.609375 56 
Q 40.484375 56 46.34375 49.84375 
Q 52.203125 43.703125 52.203125 31.203125 
z
" id="DejaVuSans-97"/>
      <path d="M 9.421875 75.984375 
L 18.40625 75.984375 
L 18.40625 0 
L 9.421875 0 
z
" id="DejaVuSans-108"/>
      <path d="M 44.28125 53.078125 
L 44.28125 44.578125 
Q 40.484375 46.53125 36.375 47.5 
Q 32.28125 48.484375 27.875 48.484375 
Q 21.1875 48.484375 17.84375 46.4375 
Q 14.5 44.390625 14.5 40.28125 
Q 14.5 37.15625 16.890625 35.375 
Q 19.28125 33.59375 26.515625 31.984375 
L 29.59375 31.296875 
Q 39.15625 29.25 43.1875 25.515625 
Q 47.21875 21.78125 47.21875 15.09375 
Q 47.21875 7.46875 41.1875 3.015625 
Q 35.15625 -1.421875 24.609375 -1.421875 
Q 20.21875 -1.421875 15.453125 -0.5625 
Q 10.6875 0.296875 5.421875 2 
L 5.421875 11.28125 
Q 10.40625 8.6875 15.234375 7.390625 
Q 20.0625 6.109375 24.8125 6.109375 
Q 31.15625 6.109375 34.5625 8.28125 
Q 37.984375 10.453125 37.984375 14.40625 
Q 37.984375 18.0625 35.515625 20.015625 
Q 33.0625 21.96875 24.703125 23.78125 
L 21.578125 24.515625 
Q 13.234375 26.265625 9.515625 29.90625 
Q 5.8125 33.546875 5.8125 39.890625 
Q 5.8125 47.609375 11.28125 51.796875 
Q 16.75 56 26.8125 56 
Q 31.78125 56 36.171875 55.265625 
Q 40.578125 54.546875 44.28125 53.078125 
z
" id="DejaVuSans-115"/>
      <path d="M 56.203125 29.59375 
L 56.203125 25.203125 
L 14.890625 25.203125 
Q 15.484375 15.921875 20.484375 11.0625 
Q 25.484375 6.203125 34.421875 6.203125 
Q 39.59375 6.203125 44.453125 7.46875 
Q 49.3125 8.734375 54.109375 11.28125 
L 54.109375 2.78125 
Q 49.265625 0.734375 44.1875 -0.34375 
Q 39.109375 -1.421875 33.890625 -1.421875 
Q 20.796875 -1.421875 13.15625 6.1875 
Q 5.515625 13.8125 5.515625 26.8125 
Q 5.515625 40.234375 12.765625 48.109375 
Q 20.015625 56 32.328125 56 
Q 43.359375 56 49.78125 48.890625 
Q 56.203125 41.796875 56.203125 29.59375 
z
M 47.21875 32.234375 
Q 47.125 39.59375 43.09375 43.984375 
Q 39.0625 48.390625 32.421875 48.390625 
Q 24.90625 48.390625 20.390625 44.140625 
Q 15.875 39.890625 15.1875 32.171875 
z
" id="DejaVuSans-101"/>
      <path id="DejaVuSans-32"/>
      <path d="M 19.671875 64.796875 
L 19.671875 37.40625 
L 32.078125 37.40625 
Q 38.96875 37.40625 42.71875 40.96875 
Q 46.484375 44.53125 46.484375 51.125 
Q 46.484375 57.671875 42.71875 61.234375 
Q 38.96875 64.796875 32.078125 64.796875 
z
M 9.8125 72.90625 
L 32.078125 72.90625 
Q 44.34375 72.90625 50.609375 67.359375 
Q 56.890625 61.8125 56.890625 51.125 
Q 56.890625 40.328125 50.609375 34.8125 
Q 44.34375 29.296875 32.078125 29.296875 
L 19.671875 29.296875 
L 19.671875 0 
L 9.8125 0 
z
" id="DejaVuSans-80"/>
      <path d="M 30.609375 48.390625 
Q 23.390625 48.390625 19.1875 42.75 
Q 14.984375 37.109375 14.984375 27.296875 
Q 14.984375 17.484375 19.15625 11.84375 
Q 23.34375 6.203125 30.609375 6.203125 
Q 37.796875 6.203125 41.984375 11.859375 
Q 46.1875 17.53125 46.1875 27.296875 
Q 46.1875 37.015625 41.984375 42.703125 
Q 37.796875 48.390625 30.609375 48.390625 
z
M 30.609375 56 
Q 42.328125 56 49.015625 48.375 
Q 55.71875 40.765625 55.71875 27.296875 
Q 55.71875 13.875 49.015625 6.21875 
Q 42.328125 -1.421875 30.609375 -1.421875 
Q 18.84375 -1.421875 12.171875 6.21875 
Q 5.515625 13.875 5.515625 27.296875 
Q 5.515625 40.765625 12.171875 48.375 
Q 18.84375 56 30.609375 56 
z
" id="DejaVuSans-111"/>
      <path d="M 9.421875 54.6875 
L 18.40625 54.6875 
L 18.40625 0 
L 9.421875 0 
z
M 9.421875 75.984375 
L 18.40625 75.984375 
L 18.40625 64.59375 
L 9.421875 64.59375 
z
" id="DejaVuSans-105"/>
      <path d="M 18.3125 70.21875 
L 18.3125 54.6875 
L 36.8125 54.6875 
L 36.8125 47.703125 
L 18.3125 47.703125 
L 18.3125 18.015625 
Q 18.3125 11.328125 20.140625 9.421875 
Q 21.96875 7.515625 27.59375 7.515625 
L 36.8125 7.515625 
L 36.8125 0 
L 27.59375 0 
Q 17.1875 0 13.234375 3.875 
Q 9.28125 7.765625 9.28125 18.015625 
L 9.28125 47.703125 
L 2.6875 47.703125 
L 2.6875 54.6875 
L 9.28125 54.6875 
L 9.28125 70.21875 
z
" id="DejaVuSans-116"/>
      <path d="M 2.984375 54.6875 
L 12.5 54.6875 
L 29.59375 8.796875 
L 46.6875 54.6875 
L 56.203125 54.6875 
L 35.6875 0 
L 23.484375 0 
z
" id="DejaVuSans-118"/>
      <path d="M 44.390625 34.1875 
Q 47.5625 33.109375 50.5625 29.59375 
Q 53.5625 26.078125 56.59375 19.921875 
L 66.609375 0 
L 56 0 
L 46.6875 18.703125 
Q 43.0625 26.03125 39.671875 28.421875 
Q 36.28125 30.8125 30.421875 30.8125 
L 19.671875 30.8125 
L 19.671875 0 
L 9.8125 0 
L 9.8125 72.90625 
L 32.078125 72.90625 
Q 44.578125 72.90625 50.734375 67.671875 
Q 56.890625 62.453125 56.890625 51.90625 
Q 56.890625 45.015625 53.6875 40.46875 
Q 50.484375 35.9375 44.390625 34.1875 
z
M 19.671875 64.796875 
L 19.671875 38.921875 
L 32.078125 38.921875 
Q 39.203125 38.921875 42.84375 42.21875 
Q 46.484375 45.515625 46.484375 51.90625 
Q 46.484375 58.296875 42.84375 61.546875 
Q 39.203125 64.796875 32.078125 64.796875 
z
" id="DejaVuSans-82"/>
     </defs>
     <g transform="translate(174.194531 280.276563)scale(0.1 -0.1)">
      <use xlink:href="#DejaVuSans-70"/>
      <use x="57.378906" xlink:href="#DejaVuSans-97"/>
      <use x="118.658203" xlink:href="#DejaVuSans-108"/>
      <use x="146.441406" xlink:href="#DejaVuSans-115"/>
      <use x="198.541016" xlink:href="#DejaVuSans-101"/>
      <use x="260.064453" xlink:href="#DejaVuSans-32"/>
      <use x="291.851562" xlink:href="#DejaVuSans-80"/>
      <use x="352.107422" xlink:href="#DejaVuSans-111"/>
      <use x="413.289062" xlink:href="#DejaVuSans-115"/>
      <use x="465.388672" xlink:href="#DejaVuSans-105"/>
      <use x="493.171875" xlink:href="#DejaVuSans-116"/>
      <use x="532.380859" xlink:href="#DejaVuSans-105"/>
      <use x="560.164062" xlink:href="#DejaVuSans-118"/>
      <use x="619.34375" xlink:href="#DejaVuSans-101"/>
      <use x="680.867188" xlink:href="#DejaVuSans-32"/>
      <use x="712.654297" xlink:href="#DejaVuSans-82"/>
      <use x="782.105469" xlink:href="#DejaVuSans-97"/>
      <use x="843.384766" xlink:href="#DejaVuSans-116"/>
      <use x="882.59375" xlink:href="#DejaVuSans-101"/>
     </g>
    </g>
   </g>
   <g id="matplotlib.axis_2">
    <g id="ytick_1">
     <g id="line2d_7">
      <defs>
       <path d="M 0 0 
L -3.5 0 
" id="mf630f9cc7c" style="stroke:#000000;stroke-width:0.8;"/>
      </defs>
      <g>
       <use style="stroke:#000000;stroke-width:0.8;" x="54" xlink:href="#mf630f9cc7c" y="242.116364"/>
      </g>
     </g>
     <g id="text_8">
      <!-- 0.0 -->
      <g transform="translate(31.096875 245.915582)scale(0.1 -0.1)">
       <use xlink:href="#DejaVuSans-48"/>
       <use x="63.623047" xlink:href="#DejaVuSans-46"/>
       <use x="95.410156" xlink:href="#DejaVuSans-48"/>
      </g>
     </g>
    </g>
    <g id="ytick_2">
     <g id="line2d_8">
      <g>
       <use style="stroke:#000000;stroke-width:0.8;" x="54" xlink:href="#mf630f9cc7c" y="202.571991"/>
      </g>
     </g>
     <g id="text_9">
      <!-- 0.2 -->
      <g transform="translate(31.096875 206.37121)scale(0.1 -0.1)">
       <use xlink:href="#DejaVuSans-48"/>
       <use x="63.623047" xlink:href="#DejaVuSans-46"/>
       <use x="95.410156" xlink:href="#DejaVuSans-50"/>
      </g>
     </g>
    </g>
    <g id="ytick_3">
     <g id="line2d_9">
      <g>
       <use style="stroke:#000000;stroke-width:0.8;" x="54" xlink:href="#mf630f9cc7c" y="163.027618"/>
      </g>
     </g>
     <g id="text_10">
      <!-- 0.4 -->
      <g transform="translate(31.096875 166.826837)scale(0.1 -0.1)">
       <use xlink:href="#DejaVuSans-48"/>
       <use x="63.623047" xlink:href="#DejaVuSans-46"/>
       <use x="95.410156" xlink:href="#DejaVuSans-52"/>
      </g>
     </g>
    </g>
    <g id="ytick_4">
     <g id="line2d_10">
      <g>
       <use style="stroke:#000000;stroke-width:0.8;" x="54" xlink:href="#mf630f9cc7c" y="123.483246"/>
      </g>
     </g>
     <g id="text_11">
      <!-- 0.6 -->
      <g transform="translate(31.096875 127.282465)scale(0.1 -0.1)">
       <use xlink:href="#DejaVuSans-48"/>
       <use x="63.623047" xlink:href="#DejaVuSans-46"/>
       <use x="95.410156" xlink:href="#DejaVuSans-54"/>
      </g>
     </g>
    </g>
    <g id="ytick_5">
     <g id="line2d_11">
      <g>
       <use style="stroke:#000000;stroke-width:0.8;" x="54" xlink:href="#mf630f9cc7c" y="83.938873"/>
      </g>
     </g>
     <g id="text_12">
      <!-- 0.8 -->
      <g transform="translate(31.096875 87.738092)scale(0.1 -0.1)">
       <use xlink:href="#DejaVuSans-48"/>
       <use x="63.623047" xlink:href="#DejaVuSans-46"/>
       <use x="95.410156" xlink:href="#DejaVuSans-56"/>
      </g>
     </g>
    </g>
    <g id="ytick_6">
     <g id="line2d_12">
      <g>
       <use style="stroke:#000000;stroke-width:0.8;" x="54" xlink:href="#mf630f9cc7c" y="44.394501"/>
      </g>
     </g>
     <g id="text_13">
      <!-- 1.0 -->
      <g transform="translate(31.096875 48.193719)scale(0.1 -0.1)">
       <use xlink:href="#DejaVuSans-49"/>
       <use x="63.623047" xlink:href="#DejaVuSans-46"/>
       <use x="95.410156" xlink:href="#DejaVuSans-48"/>
      </g>
     </g>
    </g>
    <g id="text_14">
     <!-- True Positive Rate -->
     <defs>
      <path d="M -0.296875 72.90625 
L 61.375 72.90625 
L 61.375 64.59375 
L 35.5 64.59375 
L 35.5 0 
L 25.59375 0 
L 25.59375 64.59375 
L -0.296875 64.59375 
z
" id="DejaVuSans-84"/>
      <path d="M 41.109375 46.296875 
Q 39.59375 47.171875 37.8125 47.578125 
Q 36.03125 48 33.890625 48 
Q 26.265625 48 22.1875 43.046875 
Q 18.109375 38.09375 18.109375 28.8125 
L 18.109375 0 
L 9.078125 0 
L 9.078125 54.6875 
L 18.109375 54.6875 
L 18.109375 46.1875 
Q 20.953125 51.171875 25.484375 53.578125 
Q 30.03125 56 36.53125 56 
Q 37.453125 56 38.578125 55.875 
Q 39.703125 55.765625 41.0625 55.515625 
z
" id="DejaVuSans-114"/>
      <path d="M 8.5 21.578125 
L 8.5 54.6875 
L 17.484375 54.6875 
L 17.484375 21.921875 
Q 17.484375 14.15625 20.5 10.265625 
Q 23.53125 6.390625 29.59375 6.390625 
Q 36.859375 6.390625 41.078125 11.03125 
Q 45.3125 15.671875 45.3125 23.6875 
L 45.3125 54.6875 
L 54.296875 54.6875 
L 54.296875 0 
L 45.3125 0 
L 45.3125 8.40625 
Q 42.046875 3.421875 37.71875 1 
Q 33.40625 -1.421875 27.6875 -1.421875 
Q 18.265625 -1.421875 13.375 4.4375 
Q 8.5 10.296875 8.5 21.578125 
z
M 31.109375 56 
z
" id="DejaVuSans-117"/>
     </defs>
     <g transform="translate(25.017187 188.826094)rotate(-90)scale(0.1 -0.1)">
      <use xlink:href="#DejaVuSans-84"/>
      <use x="60.865234" xlink:href="#DejaVuSans-114"/>
      <use x="101.978516" xlink:href="#DejaVuSans-117"/>
      <use x="165.357422" xlink:href="#DejaVuSans-101"/>
      <use x="226.880859" xlink:href="#DejaVuSans-32"/>
      <use x="258.667969" xlink:href="#DejaVuSans-80"/>
      <use x="318.923828" xlink:href="#DejaVuSans-111"/>
      <use x="380.105469" xlink:href="#DejaVuSans-115"/>
      <use x="432.205078" xlink:href="#DejaVuSans-105"/>
      <use x="459.988281" xlink:href="#DejaVuSans-116"/>
      <use x="499.197266" xlink:href="#DejaVuSans-105"/>
      <use x="526.980469" xlink:href="#DejaVuSans-118"/>
      <use x="586.160156" xlink:href="#DejaVuSans-101"/>
      <use x="647.683594" xlink:href="#DejaVuSans-32"/>
      <use x="679.470703" xlink:href="#DejaVuSans-82"/>
      <use x="748.921875" xlink:href="#DejaVuSans-97"/>
      <use x="810.201172" xlink:href="#DejaVuSans-116"/>
      <use x="849.410156" xlink:href="#DejaVuSans-101"/>
     </g>
    </g>
   </g>
   <g id="line2d_13">
    <path clip-path="url(#pa84676f9ad)" d="M 69.218182 242.116364 
L 69.372794 236.465764 
L 69.613303 231.011706 
L 69.759326 229.783315 
L 70.034193 224.771479 
L 70.377777 220.545812 
L 70.583927 217.106317 
L 70.73854 216.074468 
L 70.927511 213.421143 
L 71.296863 210.473004 
L 71.657626 206.886101 
L 71.889545 205.166353 
L 72.164412 202.906113 
L 72.336204 201.038959 
L 72.533765 200.252788 
L 72.765684 198.87699 
L 73.289649 196.665886 
L 73.418493 196.371072 
L 75.273845 186.347399 
L 75.660377 184.136294 
L 76.038319 182.514818 
L 76.253058 181.482969 
L 76.570873 179.959764 
L 76.716896 179.271865 
L 77.515729 175.783234 
L 77.893671 174.800521 
L 78.606607 172.147195 
L 80.607982 165.071662 
L 80.762595 164.776848 
L 80.977335 163.695863 
L 81.174895 163.450185 
L 81.690271 161.091674 
L 81.965138 160.45291 
L 83.081785 157.259093 
L 83.313704 156.915143 
L 83.425369 156.423787 
L 83.59716 156.178109 
L 84.078178 154.851446 
L 84.722397 153.475648 
L 84.816883 153.082563 
L 85.023033 152.738613 
L 85.229183 151.854171 
L 85.49546 151.559357 
L 85.847634 150.380102 
L 86.070963 149.83961 
L 88.321437 145.122587 
L 88.424512 144.827773 
L 88.845402 144.532959 
L 89.197575 143.746789 
L 89.695771 143.157161 
L 89.901922 142.518397 
L 90.133841 142.272719 
L 90.683575 140.552971 
L 91.044337 139.963344 
L 91.147413 139.521123 
L 91.817401 138.243596 
L 92.221112 137.997917 
L 92.770846 136.818662 
L 92.925458 135.93422 
L 93.140198 135.688542 
L 93.689932 134.263608 
L 93.981978 134.01793 
L 95.742845 130.873248 
L 96.438602 129.399178 
L 96.765006 128.809551 
L 97.392047 128.514737 
L 97.641145 128.219923 
L 98.062035 127.974244 
L 98.37985 127.335481 
L 98.963942 126.794989 
L 99.341884 126.500175 
L 99.43637 126.254497 
L 99.840081 125.517462 
L 100.020462 125.173512 
L 100.458531 124.682156 
L 100.570196 124.289071 
L 101.076982 123.748578 
L 102.416959 122.323644 
L 102.717594 122.077966 
L 102.880797 121.783152 
L 103.258739 121.537474 
L 103.799883 120.947846 
L 104.615894 120.407354 
L 105.096912 119.522912 
L 105.526391 119.228098 
L 105.663825 118.835013 
L 105.98164 118.441928 
L 106.110484 118.097978 
L 106.754703 117.557486 
L 106.978032 117.016994 
L 107.347385 116.72218 
L 107.484818 116.427366 
L 108.129038 115.788603 
L 109.580679 113.823177 
L 110.061696 113.577498 
L 111.401673 112.299972 
L 111.582054 111.956022 
L 112.93062 110.973309 
L 113.403048 110.28541 
L 113.99573 109.450104 
L 114.536874 108.860476 
L 115.610573 107.386406 
L 116.718631 106.845914 
L 116.959139 106.600236 
L 117.526053 106.354558 
L 118.144503 105.814065 
L 118.651289 105.519252 
L 118.84026 105.273573 
L 118.926156 104.978759 
L 120.334849 104.389132 
L 120.721381 103.848639 
L 121.683416 103.209876 
L 122.86019 101.981485 
L 123.289669 101.440992 
L 123.676201 101.195314 
L 124.054143 100.556551 
L 125.273865 99.819516 
L 125.883726 99.082481 
L 126.691148 98.591125 
L 128.159969 97.85409 
L 129.233668 97.117055 
L 129.465587 96.871377 
L 131.72465 95.544714 
L 132.549251 94.709408 
L 134.04384 93.824966 
L 134.928568 92.940525 
L 135.443943 92.596575 
L 136.113932 92.350897 
L 138.192613 91.07337 
L 138.768116 90.827692 
L 139.1117 90.532878 
L 140.271295 90.041521 
L 145.42505 87.437332 
L 146.722079 86.700297 
L 147.581038 86.454619 
L 149.187292 85.373634 
L 152.056216 84.145243 
L 153.559395 83.653887 
L 154.667452 82.916852 
L 155.036805 82.671173 
L 156.119094 82.179817 
L 156.711776 81.639325 
L 157.502018 81.393647 
L 158.541359 80.804019 
L 159.219937 80.55834 
L 159.408908 80.312662 
L 160.62863 79.575627 
L 162.51834 78.592914 
L 163.317173 78.003287 
L 164.811762 77.118845 
L 165.69649 76.873167 
L 166.495322 76.38181 
L 168.273368 75.104283 
L 170.575379 74.318113 
L 171.717794 73.826756 
L 172.894569 73.3354 
L 173.727759 72.794907 
L 174.354799 72.549229 
L 174.7671 72.156144 
L 175.334013 71.910466 
L 182.205687 70.190718 
L 184.834103 69.306276 
L 187.754564 68.323563 
L 187.995073 68.077885 
L 188.536217 67.733935 
L 191.345014 66.947765 
L 194.926875 66.161594 
L 195.416481 65.915916 
L 199.891659 64.638389 
L 201.446376 64.392711 
L 203.04404 63.753948 
L 205.242976 63.262591 
L 206.471287 62.967777 
L 206.720386 62.722099 
L 207.321657 62.476421 
L 208.30946 62.230742 
L 208.833426 61.985064 
L 209.78687 61.739386 
L 211.719529 61.444572 
L 211.968627 61.198894 
L 213.471806 60.707537 
L 218.23903 59.970502 
L 219.733619 59.675688 
L 221.305514 59.184332 
L 228.555131 57.022363 
L 230.247281 56.776685 
L 230.865731 56.432735 
L 235.590008 55.597429 
L 238.536238 55.302615 
L 239.171868 55.056937 
L 241.336445 54.762123 
L 242.272711 54.516445 
L 247.435056 54.025088 
L 251.248835 53.288054 
L 252.124974 53.042375 
L 256.273747 52.551019 
L 257.132707 52.305341 
L 260.834821 51.764848 
L 264.184762 51.51917 
L 265.121028 51.175221 
L 268.161744 50.929542 
L 268.951987 50.683864 
L 272.877431 50.438186 
L 274.019846 50.143372 
L 278.306053 49.652015 
L 279.199371 49.406337 
L 282.867127 49.160659 
L 285.804768 48.620167 
L 301.978971 47.637454 
L 303.748428 47.391775 
L 309.941524 47.146097 
L 316.976401 46.654741 
L 326.06419 46.163384 
L 335.34954 45.917706 
L 337.703088 45.672028 
L 352.271038 45.180671 
L 356.162124 44.934993 
L 373.581818 44.443636 
L 373.581818 44.443636 
" style="fill:none;stroke:#1f77b4;stroke-linecap:square;stroke-width:1.5;"/>
   </g>
   <g id="line2d_14">
    <path clip-path="url(#pa84676f9ad)" d="M 69.218182 242.116364 
L 69.510244 230.413354 
L 69.561785 229.92163 
L 69.819487 225.151916 
L 71.700712 206.51561 
L 72.052905 204.302856 
L 73.075123 197.861284 
L 73.315645 196.140253 
L 73.478857 195.599357 
L 73.719379 193.976671 
L 75.755225 185.02731 
L 76.081648 183.10959 
L 76.34794 182.322833 
L 76.631413 180.847664 
L 77.49042 176.569673 
L 78.847651 171.652442 
L 79.096763 170.718168 
L 79.698068 168.505414 
L 80.03308 167.423623 
L 80.557075 165.702592 
L 80.840547 165.01418 
L 81.433262 162.948943 
L 83.340258 157.490816 
L 86.14062 151.491794 
L 86.484223 151.098416 
L 86.767696 150.410003 
L 88.296728 147.853043 
L 88.760592 146.476219 
L 88.983934 146.181185 
L 89.190095 145.345255 
L 89.387667 145.099394 
L 89.550878 144.558498 
L 89.860121 144.263465 
L 89.920251 143.771741 
L 90.203724 143.476708 
L 91.234532 141.116437 
L 91.741346 140.32968 
L 92.677664 138.21527 
L 93.141528 137.330169 
L 93.777193 136.838446 
L 93.983355 136.543412 
L 94.266827 135.805827 
L 95.091474 134.429002 
L 95.615468 133.543901 
L 96.027791 132.953833 
L 96.560376 132.019559 
L 96.654867 131.675353 
L 97.02424 131.134457 
L 97.178861 130.741079 
L 97.831706 129.90515 
L 98.493142 128.970876 
L 98.862515 128.42998 
L 99.034316 128.184119 
L 99.154577 127.79074 
L 99.395099 127.446534 
L 99.704342 127.200673 
L 100.065125 126.463088 
L 103.277811 121.939235 
L 103.406662 121.644201 
L 103.707314 121.39834 
L 103.956426 120.7591 
L 106.318696 118.00545 
L 106.731019 117.759589 
L 107.340914 116.825315 
L 107.976579 116.28442 
L 108.586474 115.497663 
L 109.213549 115.202629 
L 109.711774 114.415872 
L 111.7648 112.694841 
L 112.460596 111.858912 
L 113.139212 111.121327 
L 113.800647 110.531259 
L 114.1872 110.285398 
L 114.719785 109.400296 
L 115.638922 108.908573 
L 117.271035 107.77761 
L 117.468607 107.531748 
L 119.667665 105.958234 
L 120.002678 105.6632 
L 120.509492 105.417339 
L 120.629753 105.122305 
L 121.883903 104.286376 
L 123.189594 103.352102 
L 124.581185 102.516172 
L 124.899018 101.975277 
L 127.158206 100.844314 
L 127.347188 100.500108 
L 128.128884 100.008385 
L 129.013662 99.221628 
L 130.07024 98.680732 
L 130.396663 98.090664 
L 131.135409 97.500597 
L 131.934286 96.959701 
L 132.295069 96.369634 
L 133.050995 96.0746 
L 133.377417 95.779566 
L 135.481985 94.697775 
L 135.748277 94.353569 
L 136.280861 94.107707 
L 136.976657 93.370123 
L 137.629502 92.829227 
L 137.784124 92.583366 
L 140.550126 90.616473 
L 141.366183 90.026405 
L 141.726966 89.731372 
L 142.800725 89.190476 
L 143.067017 88.797098 
L 143.737042 88.256202 
L 144.054875 87.961168 
L 144.819391 87.469445 
L 145.248895 87.223584 
L 145.480827 86.92855 
L 150.445887 84.666624 
L 151.373615 84.420762 
L 152.447374 83.584833 
L 152.619175 83.289799 
L 153.452412 82.994765 
L 154.259878 82.404697 
L 155.153246 81.912974 
L 156.098154 81.322906 
L 158.752485 80.290288 
L 161.037444 79.06098 
L 161.346687 78.765946 
L 162.609427 78.175878 
L 163.502794 77.487466 
L 164.653864 76.995743 
L 165.358249 76.749881 
L 165.856473 76.454848 
L 166.758431 76.208986 
L 167.686158 75.717263 
L 168.485035 75.471401 
L 168.674017 75.22554 
L 169.498663 74.733817 
L 171.113597 73.94706 
L 171.50874 73.701198 
L 172.316206 73.455337 
L 172.72853 73.209475 
L 176.800223 72.373546 
L 179.222623 71.095066 
L 179.428785 70.849204 
L 180.433823 70.357481 
L 183.131105 69.570724 
L 184.015882 69.324862 
L 184.282174 69.079001 
L 185.656586 68.538105 
L 187.477681 68.046382 
L 187.941544 67.800521 
L 191.583734 67.062936 
L 192.726214 66.767902 
L 192.898015 66.522041 
L 194.933862 66.030318 
L 195.243104 65.784456 
L 197.064199 65.292733 
L 198.807983 64.604321 
L 201.144483 63.817564 
L 210.62792 61.850671 
L 211.143324 61.60481 
L 213.204941 61.113086 
L 213.539954 60.867225 
L 214.338831 60.621363 
L 215.687472 60.375502 
L 222.585298 59.883779 
L 223.255324 59.637917 
L 226.150177 59.146194 
L 228.89041 58.359437 
L 232.025786 57.867714 
L 234.353695 57.277646 
L 236.363771 57.031785 
L 236.956486 56.785923 
L 241.844236 55.802477 
L 246.654675 55.310754 
L 248.41564 54.819031 
L 261.83333 52.753794 
L 262.383094 52.507932 
L 264.247139 52.212898 
L 266.987372 51.967037 
L 272.88875 50.934418 
L 275.27679 50.688557 
L 276.204517 50.442695 
L 277.879581 50.196833 
L 282.346418 49.950972 
L 284.253413 49.70511 
L 290.807637 49.213387 
L 292.474111 48.967526 
L 296.855047 48.721664 
L 298.865123 48.475803 
L 300.153634 48.180769 
L 309.843233 47.689046 
L 321.68894 46.459738 
L 327.530188 46.213876 
L 331.026347 45.918842 
L 347.682493 45.181258 
L 355.705619 44.689535 
L 368.212761 44.443673 
L 368.212761 44.443673 
" style="fill:none;stroke:#ff7f0e;stroke-linecap:square;stroke-width:1.5;"/>
   </g>
   <g id="line2d_15">
    <path clip-path="url(#pa84676f9ad)" d="M 69.218182 242.116364 
L 69.398593 233.855415 
L 69.8711 225.643639 
L 70.936387 210.154361 
L 71.159754 208.334986 
L 71.408893 205.925543 
L 72.061811 200.12321 
L 72.233632 199.385625 
L 72.817821 195.058462 
L 73.522286 192.058951 
L 74.140839 189.157785 
L 74.424343 187.584271 
L 74.699256 186.256618 
L 75.025715 184.683104 
L 75.163171 184.289726 
L 75.635678 181.585249 
L 76.365915 178.782427 
L 76.546326 178.143187 
L 76.786875 177.651464 
L 77.285155 175.291193 
L 77.560067 174.651953 
L 78.075529 172.68506 
L 78.350442 171.849131 
L 79.08927 170.1281 
L 79.699233 167.866174 
L 80.09442 167.276106 
L 80.395106 166.341832 
L 80.635655 165.800937 
L 80.93634 165.210869 
L 81.27139 164.571629 
L 81.60644 163.243977 
L 82.585817 160.883706 
L 82.869321 160.391983 
L 83.084097 159.605226 
L 83.479284 158.720124 
L 83.848698 157.982539 
L 84.312613 156.949921 
L 84.724983 155.769785 
L 85.017077 155.523924 
L 85.773088 154.147099 
L 85.979272 153.901238 
L 86.288549 153.261997 
L 86.864148 152.081862 
L 87.164834 151.442622 
L 87.929435 150.11497 
L 88.505034 148.787317 
L 88.659672 148.541456 
L 88.934585 147.803871 
L 89.157952 147.017114 
L 89.355545 146.181185 
L 90.953476 142.935812 
L 91.047977 142.591606 
L 91.477529 141.952366 
L 91.718077 141.411471 
L 92.267903 140.919747 
L 92.465496 140.673886 
L 92.723227 139.985473 
L 92.955185 139.444578 
L 93.307417 139.149544 
L 93.908789 137.772719 
L 94.475796 136.985963 
L 96.047954 134.920725 
L 97.044513 133.248867 
L 97.474064 132.707971 
L 97.645885 132.314593 
L 98.616671 131.429491 
L 99.381272 129.610116 
L 100.412195 128.62667 
L 101.606347 126.905639 
L 103.367508 124.889574 
L 104.407022 123.119371 
L 104.879528 122.529303 
L 105.678494 121.890063 
L 106.211137 120.955789 
L 106.503232 120.316549 
L 108.358893 118.00545 
L 109.089131 116.72697 
L 109.83655 116.235247 
L 110.034143 115.989386 
L 110.223146 115.546835 
L 110.695652 115.005939 
L 111.030702 114.514216 
L 111.322797 113.776632 
L 111.958533 113.53077 
L 112.843409 112.498152 
L 113.865741 111.809739 
L 114.518659 110.629604 
L 115.5324 109.547813 
L 115.70422 109.252779 
L 116.898373 108.220161 
L 118.728261 107.13837 
L 119.011765 106.843336 
L 120.068461 106.154923 
L 121.039247 105.122305 
L 121.563299 104.876443 
L 121.769484 104.630582 
L 122.534085 104.138859 
L 123.152639 103.352102 
L 124.08047 102.762034 
L 124.819298 102.221139 
L 125.059847 101.926105 
L 125.618263 101.680243 
L 127.302104 100.303418 
L 127.989386 99.811695 
L 128.762579 99.024938 
L 128.985945 98.729904 
L 129.52718 98.484043 
L 130.583876 97.598941 
L 131.125111 97.254735 
L 131.262567 97.008874 
L 132.233353 96.763012 
L 134.716159 94.648603 
L 134.853616 94.402741 
L 136.296908 93.370123 
L 137.0701 92.780055 
L 137.396559 92.534193 
L 137.82611 91.944126 
L 138.101023 91.698264 
L 139.372495 91.206541 
L 139.707545 90.714818 
L 142.482446 89.387165 
L 143.006499 88.895442 
L 146.769368 86.190965 
L 149.277947 85.158347 
L 149.398222 84.912485 
L 150.764195 83.879867 
L 152.327761 83.388143 
L 153.650779 82.89642 
L 154.707475 82.601386 
L 157.972065 80.880356 
L 159.234946 80.634494 
L 159.965183 80.33946 
L 160.978924 79.70022 
L 161.537341 79.405186 
L 162.164485 78.815118 
L 163.006406 78.470912 
L 163.728052 77.880845 
L 163.848326 77.634983 
L 164.595746 77.14326 
L 165.394711 76.897398 
L 166.803639 76.602364 
L 168.221158 76.012297 
L 168.590572 75.766435 
L 169.449675 75.471401 
L 169.776134 75.22554 
L 171.382656 74.733817 
L 172.645536 74.192921 
L 173.143816 73.897887 
L 175.910126 73.160303 
L 176.296722 72.914441 
L 180.068182 71.3901 
L 182.250303 70.652515 
L 182.989131 70.357481 
L 183.298408 70.111619 
L 185.506301 69.324862 
L 186.24513 69.079001 
L 186.562997 68.783967 
L 188.160928 68.292244 
L 188.985667 68.046382 
L 191.416927 67.505487 
L 191.734795 67.210453 
L 193.186678 66.964592 
L 193.650593 66.71873 
L 196.073263 66.227007 
L 197.009684 65.931973 
L 199.81895 65.44025 
L 201.4942 64.948527 
L 201.923751 64.702665 
L 204.183191 64.210942 
L 206.86359 63.178324 
L 207.559463 62.88329 
L 211.674565 62.145705 
L 211.958068 61.850671 
L 214.06287 61.358948 
L 216.786225 60.621363 
L 227.232912 58.457782 
L 230.411591 57.966059 
L 231.786155 57.474335 
L 235.024972 56.982612 
L 236.648675 56.441717 
L 239.251756 56.195855 
L 240.557592 55.949994 
L 244.492282 55.458271 
L 250.454453 54.474824 
L 256.786039 53.442206 
L 259.89599 52.704621 
L 262.877076 52.212898 
L 267.387364 51.475314 
L 269.775669 51.229452 
L 270.806592 50.98359 
L 274.457778 50.491867 
L 278.005872 50.246006 
L 287.687957 48.967526 
L 292.266974 48.672492 
L 294.217136 48.42663 
L 295.187922 48.180769 
L 306.459348 47.197322 
L 313.332168 46.705599 
L 320.428355 46.213876 
L 337.704907 45.722153 
L 343.856081 45.23043 
L 355.9952 44.738707 
L 359.59484 44.492845 
L 359.59484 44.492845 
" style="fill:none;stroke:#2ca02c;stroke-linecap:square;stroke-width:1.5;"/>
   </g>
   <g id="line2d_16">
    <path clip-path="url(#pa84676f9ad)" d="M 69.218182 242.116364 
L 69.407184 233.305755 
L 69.785189 224.741253 
L 69.888282 223.609164 
L 70.146013 219.080807 
L 70.618519 213.469581 
L 70.87625 211.254624 
L 72.173495 198.653978 
L 72.328133 198.407871 
L 73.994792 189.49882 
L 76.632237 177.095059 
L 78.556626 169.071991 
L 78.900267 167.546132 
L 79.518821 164.445191 
L 79.836689 163.657651 
L 80.558335 161.245808 
L 80.953522 160.310604 
L 81.142525 160.015276 
L 81.52053 158.833966 
L 81.984446 157.554213 
L 82.216403 157.258885 
L 83.548012 153.567289 
L 83.788561 153.321183 
L 84.149384 152.238315 
L 84.974122 150.90934 
L 85.20608 149.924915 
L 85.893362 148.349834 
L 86.142502 148.054507 
L 86.271367 147.660736 
L 86.54628 147.365409 
L 86.838375 146.725532 
L 87.164834 146.233319 
L 87.525657 145.987213 
L 88.264485 144.362911 
L 90.661381 139.68689 
L 90.927703 138.850128 
L 92.319449 136.192179 
L 93.144187 135.552303 
L 93.951744 134.420213 
L 94.123564 134.026443 
L 94.742118 133.337345 
L 95.377854 132.205256 
L 95.506719 131.860707 
L 96.425959 130.531733 
L 97.671658 128.90743 
L 98.350349 128.11989 
L 98.625262 127.578456 
L 99.286771 126.938579 
L 100.334876 125.511162 
L 100.523878 125.117392 
L 101.28848 124.477516 
L 101.846896 123.640754 
L 102.620088 123.394648 
L 102.929365 123.148541 
L 103.754104 121.622682 
L 104.252383 121.081248 
L 105.661311 118.964733 
L 106.271274 118.07875 
L 108.513532 116.109899 
L 109.089131 115.125473 
L 109.690502 114.584039 
L 109.802186 114.288712 
L 110.626924 113.353507 
L 110.987747 112.762852 
L 112.413857 112.024533 
L 113.69392 110.892444 
L 113.814195 110.597116 
L 114.209382 110.35101 
L 114.501477 110.006461 
L 114.870891 109.760354 
L 115.059893 109.465027 
L 115.95336 108.677486 
L 116.864009 107.299291 
L 118.195617 106.167201 
L 118.8829 105.379661 
L 119.020356 105.084333 
L 121.374297 102.967818 
L 124.870844 100.457533 
L 125.712765 99.669993 
L 126.073588 98.980895 
L 126.314136 98.734789 
L 127.327877 98.193355 
L 127.877703 97.947248 
L 128.848489 96.913601 
L 128.968763 96.667495 
L 130.145734 95.781512 
L 130.472193 95.486184 
L 132.061532 94.698644 
L 133.204139 93.812661 
L 133.831284 93.566555 
L 134.870798 92.828236 
L 136.210998 92.089916 
L 136.391409 91.794589 
L 136.838143 91.548482 
L 137.147419 91.203934 
L 137.284876 90.859385 
L 137.645699 90.613278 
L 138.771123 90.071844 
L 139.295176 89.481189 
L 140.08555 88.693648 
L 141.563207 88.201436 
L 143.204092 87.660002 
L 147.259056 85.445044 
L 148.023658 85.198938 
L 148.367299 84.854389 
L 151.185155 83.328529 
L 155.867264 80.522917 
L 156.606092 79.981483 
L 158.023611 79.440049 
L 158.444571 79.193942 
L 159.123262 78.947836 
L 159.398175 78.652508 
L 161.021879 78.111074 
L 162.104348 77.471198 
L 163.264137 77.17587 
L 163.556231 76.929764 
L 164.509835 76.683657 
L 164.973751 76.437551 
L 165.978901 76.191445 
L 166.906731 75.699232 
L 168.289886 75.207019 
L 168.564799 74.960913 
L 169.088852 74.665585 
L 170.618054 74.419479 
L 171.863753 73.878045 
L 172.353441 73.631938 
L 174.252058 73.041283 
L 175.119752 72.499849 
L 176.202221 72.253743 
L 176.61459 72.007636 
L 178.307022 71.515423 
L 182.112846 69.940343 
L 185.386027 69.202023 
L 187.112823 68.611368 
L 189.836178 67.873049 
L 189.982226 67.577721 
L 192.02689 66.839402 
L 193.87396 66.34719 
L 195.557801 65.854977 
L 196.588724 65.60887 
L 197.052639 65.165879 
L 198.349884 64.919773 
L 198.624797 64.673666 
L 199.269124 64.42756 
L 200.377366 64.181453 
L 203.281133 63.689241 
L 203.693502 63.443134 
L 204.85329 63.147807 
L 206.27081 62.9017 
L 206.86359 62.606373 
L 210.695188 61.868053 
L 211.459789 61.572726 
L 215.446025 60.834407 
L 219.363532 59.849981 
L 221.013009 59.603875 
L 221.476925 59.357768 
L 222.834307 59.111662 
L 226.786178 58.619449 
L 228.47861 58.373343 
L 229.011254 58.127237 
L 230.798187 57.635024 
L 231.485469 57.388917 
L 234.389236 56.896705 
L 237.327366 56.355271 
L 239.672716 56.109164 
L 240.952779 55.863058 
L 242.430435 55.370845 
L 243.22081 55.124739 
L 245.815299 54.829411 
L 246.682993 54.583305 
L 248.75343 54.337198 
L 249.767171 54.091092 
L 253.650315 53.549658 
L 255.153744 53.303552 
L 257.782598 53.057445 
L 258.418334 52.811339 
L 261.158871 52.516011 
L 261.65715 52.269905 
L 265.033423 51.531586 
L 267.825507 51.285479 
L 269.11416 51.039373 
L 274.956058 50.301054 
L 276.055709 50.054947 
L 279.088341 49.562735 
L 292.593433 48.775194 
L 296.742898 48.282981 
L 301.261777 47.790769 
L 306.150071 47.544662 
L 307.387178 47.298556 
L 310.591631 47.05245 
L 315.402605 46.806343 
L 317.95414 46.560237 
L 322.971298 46.31413 
L 324.045177 46.068024 
L 327.25822 45.772696 
L 338.117276 45.52659 
L 347.593177 45.034377 
L 368.495142 44.542165 
L 368.495142 44.542165 
" style="fill:none;stroke:#d62728;stroke-linecap:square;stroke-width:1.5;"/>
   </g>
   <g id="line2d_17">
    <path clip-path="url(#pa84676f9ad)" d="M 69.218182 242.116364 
L 69.4072 233.005892 
L 70.154682 221.728605 
L 70.352292 217.641204 
L 70.438209 217.0995 
L 70.635819 214.686456 
L 71.288792 209.170927 
L 71.563727 206.954867 
L 72.637695 199.124785 
L 72.929814 197.302691 
L 73.187567 196.071546 
L 73.728846 191.540933 
L 74.003782 190.556017 
L 74.596612 187.749007 
L 74.759855 186.911829 
L 74.940282 185.877667 
L 75.215218 184.646522 
L 75.395644 183.021411 
L 75.619029 182.134987 
L 76.082983 179.426468 
L 76.890607 176.619458 
L 77.139768 175.880771 
L 78.265286 170.463733 
L 79.218969 167.164265 
L 79.545455 166.228595 
L 80.267162 164.258763 
L 80.438997 163.12611 
L 80.559281 162.879881 
L 80.610831 162.485915 
L 80.808441 162.239686 
L 81.186478 160.516083 
L 81.98551 158.841726 
L 82.432281 157.807564 
L 83.282863 156.477928 
L 83.411739 156.231699 
L 83.489065 155.591504 
L 83.772592 155.000554 
L 84.666134 152.784493 
L 85.319106 151.356365 
L 87.595917 146.284049 
L 88.137197 145.693099 
L 88.523826 144.609692 
L 88.89327 143.674021 
L 89.211165 142.590614 
L 89.494692 142.295139 
L 89.812587 141.507206 
L 90.216399 140.867011 
L 90.439784 140.620782 
L 90.740495 139.980587 
L 91.170082 139.389637 
L 91.462201 138.847934 
L 91.917564 137.666035 
L 92.166724 137.419806 
L 92.261233 136.976593 
L 92.965756 136.139415 
L 93.37816 135.302236 
L 93.97099 134.218829 
L 94.099866 133.775617 
L 94.503678 133.233913 
L 94.684104 132.839947 
L 94.873123 132.002768 
L 95.30271 131.411819 
L 95.603421 131.116344 
L 95.723705 130.771623 
L 96.814856 129.195758 
L 97.192893 128.063105 
L 97.519379 127.76763 
L 97.923191 127.078189 
L 98.258269 126.83196 
L 98.395737 126.536485 
L 99.005751 125.994781 
L 99.143218 125.551569 
L 99.581397 124.96062 
L 100.071127 123.729475 
L 100.715507 122.793805 
L 100.87875 122.49833 
L 101.239603 122.252101 
L 102.141736 121.020956 
L 103.069644 119.740566 
L 103.284438 119.395845 
L 103.645291 119.10037 
L 104.263897 117.81998 
L 104.719259 117.327522 
L 105.07152 116.490343 
L 105.81041 115.653165 
L 106.050979 115.209952 
L 107.502983 114.225037 
L 108.190323 113.48635 
L 108.697235 113.092383 
L 108.937804 112.255205 
L 109.049497 111.95973 
L 109.822753 111.221043 
L 112.2714 108.758753 
L 113.60312 107.970821 
L 114.479477 107.084396 
L 115.098083 106.788922 
L 115.269918 106.542693 
L 116.507129 105.705514 
L 117.314752 105.163811 
L 118.027867 104.326632 
L 118.423087 104.080403 
L 118.921408 103.489454 
L 120.244536 102.258309 
L 120.476513 101.815097 
L 121.438788 101.027164 
L 121.722316 100.534706 
L 122.143311 100.288477 
L 122.409655 99.697527 
L 123.208687 99.205069 
L 123.389114 98.95884 
L 126.662567 96.398059 
L 126.937503 96.053339 
L 129.085439 94.674456 
L 130.726461 92.950854 
L 131.697328 92.212167 
L 132.573686 91.916692 
L 132.874397 91.670463 
L 133.965548 91.030268 
L 134.859089 90.390072 
L 135.022332 90.094598 
L 135.709671 89.848369 
L 135.915873 89.60214 
L 137.780281 89.109682 
L 138.553538 88.518732 
L 139.077634 88.272503 
L 139.593139 87.632308 
L 140.022726 87.386079 
L 140.546822 86.795129 
L 140.942042 86.499655 
L 143.485198 85.465493 
L 144.215496 84.874543 
L 147.961495 83.052449 
L 148.305165 82.510745 
L 148.966729 82.166025 
L 150.014921 81.328846 
L 150.478876 81.033371 
L 151.363825 80.787142 
L 151.999614 80.146947 
L 152.953297 79.654489 
L 153.528944 79.40826 
L 153.743737 79.162031 
L 154.98954 78.669573 
L 157.094517 77.53692 
L 157.498329 77.241445 
L 160.264869 76.108792 
L 161.072493 75.862563 
L 161.364612 75.616334 
L 161.983218 75.370105 
L 162.266745 75.07463 
L 163.048594 74.532927 
L 165.660483 73.744994 
L 167.645176 73.006307 
L 169.131547 72.760078 
L 170.136781 72.26762 
L 170.28284 71.972145 
L 172.293308 71.233458 
L 173.307133 70.987229 
L 173.667987 70.741001 
L 174.47561 70.494772 
L 174.776321 70.248543 
L 177.465536 68.968152 
L 178.204426 68.721923 
L 180.335178 68.229465 
L 180.764765 67.983236 
L 182.594806 67.490778 
L 183.703141 66.99832 
L 183.969485 66.752091 
L 184.407664 66.505862 
L 187.191388 65.71793 
L 190.164131 65.225472 
L 191.238098 64.979243 
L 191.770786 64.733014 
L 194.640428 63.895835 
L 196.582162 63.403377 
L 197.836556 62.910919 
L 205.586307 61.3843 
L 206.43689 61.138071 
L 211.540384 60.103909 
L 216.197108 59.118993 
L 216.635287 58.872764 
L 218.181801 58.380306 
L 219.633805 57.887848 
L 220.965525 57.641619 
L 221.67864 57.39539 
L 224.969277 56.902932 
L 225.716758 56.656703 
L 227.813143 56.361229 
L 228.706684 56.115 
L 235.287959 55.376313 
L 237.324201 54.834609 
L 241.422462 54.539134 
L 255.530102 52.273828 
L 257.454652 52.027599 
L 264.353821 51.535141 
L 268.572366 51.042683 
L 275.883938 50.303996 
L 282.284786 49.811538 
L 286.34868 49.072851 
L 288.642675 48.826622 
L 292.087963 48.580393 
L 294.759995 48.087935 
L 301.281127 47.300003 
L 314.589735 46.265841 
L 343.793065 44.98545 
L 353.063555 44.739221 
L 371.106213 44.492992 
L 371.106213 44.492992 
" style="fill:none;stroke:#9467bd;stroke-linecap:square;stroke-width:1.5;"/>
   </g>
   <g id="patch_3">
    <path d="M 54 252 
L 54 34.56 
" style="fill:none;stroke:#000000;stroke-linecap:square;stroke-linejoin:miter;stroke-width:0.8;"/>
   </g>
   <g id="patch_4">
    <path d="M 388.8 252 
L 388.8 34.56 
" style="fill:none;stroke:#000000;stroke-linecap:square;stroke-linejoin:miter;stroke-width:0.8;"/>
   </g>
   <g id="patch_5">
    <path d="M 54 252 
L 388.8 252 
" style="fill:none;stroke:#000000;stroke-linecap:square;stroke-linejoin:miter;stroke-width:0.8;"/>
   </g>
   <g id="patch_6">
    <path d="M 54 34.56 
L 388.8 34.56 
" style="fill:none;stroke:#000000;stroke-linecap:square;stroke-linejoin:miter;stroke-width:0.8;"/>
   </g>
   <g id="text_15">
    <!-- Cross-fold Validated ROC Curves -->
    <defs>
     <path d="M 64.40625 67.28125 
L 64.40625 56.890625 
Q 59.421875 61.53125 53.78125 63.8125 
Q 48.140625 66.109375 41.796875 66.109375 
Q 29.296875 66.109375 22.65625 58.46875 
Q 16.015625 50.828125 16.015625 36.375 
Q 16.015625 21.96875 22.65625 14.328125 
Q 29.296875 6.6875 41.796875 6.6875 
Q 48.140625 6.6875 53.78125 8.984375 
Q 59.421875 11.28125 64.40625 15.921875 
L 64.40625 5.609375 
Q 59.234375 2.09375 53.4375 0.328125 
Q 47.65625 -1.421875 41.21875 -1.421875 
Q 24.65625 -1.421875 15.125 8.703125 
Q 5.609375 18.84375 5.609375 36.375 
Q 5.609375 53.953125 15.125 64.078125 
Q 24.65625 74.21875 41.21875 74.21875 
Q 47.75 74.21875 53.53125 72.484375 
Q 59.328125 70.75 64.40625 67.28125 
z
" id="DejaVuSans-67"/>
     <path d="M 4.890625 31.390625 
L 31.203125 31.390625 
L 31.203125 23.390625 
L 4.890625 23.390625 
z
" id="DejaVuSans-45"/>
     <path d="M 37.109375 75.984375 
L 37.109375 68.5 
L 28.515625 68.5 
Q 23.6875 68.5 21.796875 66.546875 
Q 19.921875 64.59375 19.921875 59.515625 
L 19.921875 54.6875 
L 34.71875 54.6875 
L 34.71875 47.703125 
L 19.921875 47.703125 
L 19.921875 0 
L 10.890625 0 
L 10.890625 47.703125 
L 2.296875 47.703125 
L 2.296875 54.6875 
L 10.890625 54.6875 
L 10.890625 58.5 
Q 10.890625 67.625 15.140625 71.796875 
Q 19.390625 75.984375 28.609375 75.984375 
z
" id="DejaVuSans-102"/>
     <path d="M 45.40625 46.390625 
L 45.40625 75.984375 
L 54.390625 75.984375 
L 54.390625 0 
L 45.40625 0 
L 45.40625 8.203125 
Q 42.578125 3.328125 38.25 0.953125 
Q 33.9375 -1.421875 27.875 -1.421875 
Q 17.96875 -1.421875 11.734375 6.484375 
Q 5.515625 14.40625 5.515625 27.296875 
Q 5.515625 40.1875 11.734375 48.09375 
Q 17.96875 56 27.875 56 
Q 33.9375 56 38.25 53.625 
Q 42.578125 51.265625 45.40625 46.390625 
z
M 14.796875 27.296875 
Q 14.796875 17.390625 18.875 11.75 
Q 22.953125 6.109375 30.078125 6.109375 
Q 37.203125 6.109375 41.296875 11.75 
Q 45.40625 17.390625 45.40625 27.296875 
Q 45.40625 37.203125 41.296875 42.84375 
Q 37.203125 48.484375 30.078125 48.484375 
Q 22.953125 48.484375 18.875 42.84375 
Q 14.796875 37.203125 14.796875 27.296875 
z
" id="DejaVuSans-100"/>
     <path d="M 28.609375 0 
L 0.78125 72.90625 
L 11.078125 72.90625 
L 34.1875 11.53125 
L 57.328125 72.90625 
L 67.578125 72.90625 
L 39.796875 0 
z
" id="DejaVuSans-86"/>
     <path d="M 39.40625 66.21875 
Q 28.65625 66.21875 22.328125 58.203125 
Q 16.015625 50.203125 16.015625 36.375 
Q 16.015625 22.609375 22.328125 14.59375 
Q 28.65625 6.59375 39.40625 6.59375 
Q 50.140625 6.59375 56.421875 14.59375 
Q 62.703125 22.609375 62.703125 36.375 
Q 62.703125 50.203125 56.421875 58.203125 
Q 50.140625 66.21875 39.40625 66.21875 
z
M 39.40625 74.21875 
Q 54.734375 74.21875 63.90625 63.9375 
Q 73.09375 53.65625 73.09375 36.375 
Q 73.09375 19.140625 63.90625 8.859375 
Q 54.734375 -1.421875 39.40625 -1.421875 
Q 24.03125 -1.421875 14.8125 8.828125 
Q 5.609375 19.09375 5.609375 36.375 
Q 5.609375 53.65625 14.8125 63.9375 
Q 24.03125 74.21875 39.40625 74.21875 
z
" id="DejaVuSans-79"/>
    </defs>
    <g transform="translate(123.321563 28.56)scale(0.12 -0.12)">
     <use xlink:href="#DejaVuSans-67"/>
     <use x="69.824219" xlink:href="#DejaVuSans-114"/>
     <use x="110.90625" xlink:href="#DejaVuSans-111"/>
     <use x="172.087891" xlink:href="#DejaVuSans-115"/>
     <use x="224.1875" xlink:href="#DejaVuSans-115"/>
     <use x="276.287109" xlink:href="#DejaVuSans-45"/>
     <use x="312.371094" xlink:href="#DejaVuSans-102"/>
     <use x="347.576172" xlink:href="#DejaVuSans-111"/>
     <use x="408.757812" xlink:href="#DejaVuSans-108"/>
     <use x="436.541016" xlink:href="#DejaVuSans-100"/>
     <use x="500.017578" xlink:href="#DejaVuSans-32"/>
     <use x="531.804688" xlink:href="#DejaVuSans-86"/>
     <use x="600.103516" xlink:href="#DejaVuSans-97"/>
     <use x="661.382812" xlink:href="#DejaVuSans-108"/>
     <use x="689.166016" xlink:href="#DejaVuSans-105"/>
     <use x="716.949219" xlink:href="#DejaVuSans-100"/>
     <use x="780.425781" xlink:href="#DejaVuSans-97"/>
     <use x="841.705078" xlink:href="#DejaVuSans-116"/>
     <use x="880.914062" xlink:href="#DejaVuSans-101"/>
     <use x="942.4375" xlink:href="#DejaVuSans-100"/>
     <use x="1005.914062" xlink:href="#DejaVuSans-32"/>
     <use x="1037.701172" xlink:href="#DejaVuSans-82"/>
     <use x="1107.183594" xlink:href="#DejaVuSans-79"/>
     <use x="1185.894531" xlink:href="#DejaVuSans-67"/>
     <use x="1255.71875" xlink:href="#DejaVuSans-32"/>
     <use x="1287.505859" xlink:href="#DejaVuSans-67"/>
     <use x="1357.330078" xlink:href="#DejaVuSans-117"/>
     <use x="1420.708984" xlink:href="#DejaVuSans-114"/>
     <use x="1461.822266" xlink:href="#DejaVuSans-118"/>
     <use x="1521.001953" xlink:href="#DejaVuSans-101"/>
     <use x="1582.525391" xlink:href="#DejaVuSans-115"/>
    </g>
   </g>
   <g id="legend_1">
    <g id="patch_7">
     <path d="M 321.49375 247 
L 381.8 247 
Q 383.8 247 383.8 245 
L 383.8 172.609375 
Q 383.8 170.609375 381.8 170.609375 
L 321.49375 170.609375 
Q 319.49375 170.609375 319.49375 172.609375 
L 319.49375 245 
Q 319.49375 247 321.49375 247 
z
" style="fill:#ffffff;opacity:0.8;stroke:#cccccc;stroke-linejoin:miter;"/>
    </g>
    <g id="line2d_18">
     <path d="M 323.49375 178.707812 
L 343.49375 178.707812 
" style="fill:none;stroke:#1f77b4;stroke-linecap:square;stroke-width:1.5;"/>
    </g>
    <g id="line2d_19"/>
    <g id="text_16">
     <!-- fold 0 -->
     <g transform="translate(351.49375 182.207812)scale(0.1 -0.1)">
      <use xlink:href="#DejaVuSans-102"/>
      <use x="35.205078" xlink:href="#DejaVuSans-111"/>
      <use x="96.386719" xlink:href="#DejaVuSans-108"/>
      <use x="124.169922" xlink:href="#DejaVuSans-100"/>
      <use x="187.646484" xlink:href="#DejaVuSans-32"/>
      <use x="219.433594" xlink:href="#DejaVuSans-48"/>
     </g>
    </g>
    <g id="line2d_20">
     <path d="M 323.49375 193.385938 
L 343.49375 193.385938 
" style="fill:none;stroke:#ff7f0e;stroke-linecap:square;stroke-width:1.5;"/>
    </g>
    <g id="line2d_21"/>
    <g id="text_17">
     <!-- fold 1 -->
     <g transform="translate(351.49375 196.885938)scale(0.1 -0.1)">
      <use xlink:href="#DejaVuSans-102"/>
      <use x="35.205078" xlink:href="#DejaVuSans-111"/>
      <use x="96.386719" xlink:href="#DejaVuSans-108"/>
      <use x="124.169922" xlink:href="#DejaVuSans-100"/>
      <use x="187.646484" xlink:href="#DejaVuSans-32"/>
      <use x="219.433594" xlink:href="#DejaVuSans-49"/>
     </g>
    </g>
    <g id="line2d_22">
     <path d="M 323.49375 208.064063 
L 343.49375 208.064063 
" style="fill:none;stroke:#2ca02c;stroke-linecap:square;stroke-width:1.5;"/>
    </g>
    <g id="line2d_23"/>
    <g id="text_18">
     <!-- fold 2 -->
     <g transform="translate(351.49375 211.564063)scale(0.1 -0.1)">
      <use xlink:href="#DejaVuSans-102"/>
      <use x="35.205078" xlink:href="#DejaVuSans-111"/>
      <use x="96.386719" xlink:href="#DejaVuSans-108"/>
      <use x="124.169922" xlink:href="#DejaVuSans-100"/>
      <use x="187.646484" xlink:href="#DejaVuSans-32"/>
      <use x="219.433594" xlink:href="#DejaVuSans-50"/>
     </g>
    </g>
    <g id="line2d_24">
     <path d="M 323.49375 222.742188 
L 343.49375 222.742188 
" style="fill:none;stroke:#d62728;stroke-linecap:square;stroke-width:1.5;"/>
    </g>
    <g id="line2d_25"/>
    <g id="text_19">
     <!-- fold 3 -->
     <defs>
      <path d="M 40.578125 39.3125 
Q 47.65625 37.796875 51.625 33 
Q 55.609375 28.21875 55.609375 21.1875 
Q 55.609375 10.40625 48.1875 4.484375 
Q 40.765625 -1.421875 27.09375 -1.421875 
Q 22.515625 -1.421875 17.65625 -0.515625 
Q 12.796875 0.390625 7.625 2.203125 
L 7.625 11.71875 
Q 11.71875 9.328125 16.59375 8.109375 
Q 21.484375 6.890625 26.8125 6.890625 
Q 36.078125 6.890625 40.9375 10.546875 
Q 45.796875 14.203125 45.796875 21.1875 
Q 45.796875 27.640625 41.28125 31.265625 
Q 36.765625 34.90625 28.71875 34.90625 
L 20.21875 34.90625 
L 20.21875 43.015625 
L 29.109375 43.015625 
Q 36.375 43.015625 40.234375 45.921875 
Q 44.09375 48.828125 44.09375 54.296875 
Q 44.09375 59.90625 40.109375 62.90625 
Q 36.140625 65.921875 28.71875 65.921875 
Q 24.65625 65.921875 20.015625 65.03125 
Q 15.375 64.15625 9.8125 62.3125 
L 9.8125 71.09375 
Q 15.4375 72.65625 20.34375 73.4375 
Q 25.25 74.21875 29.59375 74.21875 
Q 40.828125 74.21875 47.359375 69.109375 
Q 53.90625 64.015625 53.90625 55.328125 
Q 53.90625 49.265625 50.4375 45.09375 
Q 46.96875 40.921875 40.578125 39.3125 
z
" id="DejaVuSans-51"/>
     </defs>
     <g transform="translate(351.49375 226.242188)scale(0.1 -0.1)">
      <use xlink:href="#DejaVuSans-102"/>
      <use x="35.205078" xlink:href="#DejaVuSans-111"/>
      <use x="96.386719" xlink:href="#DejaVuSans-108"/>
      <use x="124.169922" xlink:href="#DejaVuSans-100"/>
      <use x="187.646484" xlink:href="#DejaVuSans-32"/>
      <use x="219.433594" xlink:href="#DejaVuSans-51"/>
     </g>
    </g>
    <g id="line2d_26">
     <path d="M 323.49375 237.420313 
L 343.49375 237.420313 
" style="fill:none;stroke:#9467bd;stroke-linecap:square;stroke-width:1.5;"/>
    </g>
    <g id="line2d_27"/>
    <g id="text_20">
     <!-- fold 4 -->
     <g transform="translate(351.49375 240.920313)scale(0.1 -0.1)">
      <use xlink:href="#DejaVuSans-102"/>
      <use x="35.205078" xlink:href="#DejaVuSans-111"/>
      <use x="96.386719" xlink:href="#DejaVuSans-108"/>
      <use x="124.169922" xlink:href="#DejaVuSans-100"/>
      <use x="187.646484" xlink:href="#DejaVuSans-32"/>
      <use x="219.433594" xlink:href="#DejaVuSans-52"/>
     </g>
    </g>
   </g>
  </g>
 </g>
 <defs>
  <clipPath id="pa84676f9ad">
   <rect height="217.44" width="334.8" x="54" y="34.56"/>
  </clipPath>
 </defs>
</svg>
